/* XPM */
static char *result[] = {
/* columns rows colors chars-per-pixel */
"48 48 232 2 ",
"   c #040200",
".  c #080201",
"X  c #16140D",
"o  c #26150D",
"O  c #2D160C",
"+  c #3B1E11",
"@  c #2F130C",
"#  c #1B250C",
"$  c #1F2811",
"%  c #2D2913",
"&  c #262811",
"*  c #322E1C",
"=  c #293617",
"-  c #4D160C",
";  c #731C0E",
":  c #711F12",
">  c #6F1D11",
",  c #4B291A",
"<  c #452516",
"1  c #572A19",
"2  c #4A311B",
"3  c #532E13",
"4  c #6A2618",
"5  c #782714",
"6  c #673618",
"7  c #763E1A",
"8  c #5C3321",
"9  c #5B3233",
"0  c #603521",
"q  c #6E3D26",
"w  c #643C24",
"e  c #6D3324",
"r  c #394B1D",
"t  c #3A4E21",
"y  c #494F1F",
"u  c #77441C",
"i  c #4A5425",
"p  c #7A4425",
"a  c #6C5126",
"s  c #56742C",
"d  c #59762B",
"f  c #576C2E",
"g  c #78662D",
"h  c #7C7A34",
"j  c #6F752F",
"k  c #2E4E49",
"l  c #165656",
"z  c #7B7242",
"x  c #6E6856",
"c  c #7B6764",
"v  c #832C16",
"b  c #873719",
"n  c #8A2E11",
"m  c #883821",
"M  c #B63D1B",
"N  c #8A481A",
"B  c #9B461C",
"V  c #BD571B",
"C  c #AC491A",
"Z  c #BF611F",
"A  c #8A492B",
"S  c #9D482A",
"D  c #974829",
"F  c #9A592A",
"G  c #8D5230",
"H  c #A75927",
"J  c #A95532",
"K  c #A55B37",
"L  c #AC5934",
"P  c #A95E38",
"I  c #B25F37",
"U  c #AB5529",
"Y  c #877A38",
"T  c #95652C",
"R  c #BE652F",
"E  c #B6653B",
"W  c #B8653B",
"Q  c #BA6838",
"!  c #BB773D",
"~  c #AB6D31",
"^  c #C2581F",
"/  c #D4651C",
"(  c #E06E1D",
")  c #ED771D",
"_  c #EC781E",
"`  c #E15622",
"'  c #CE6C2F",
"]  c #C6662A",
"[  c #D5692A",
"{  c #DD7226",
"}  c #D9752A",
"|  c #C46934",
" . c #CA6B31",
".. c #C07A3D",
"X. c #C77534",
"o. c #E46A26",
"O. c #E56929",
"+. c #E37423",
"@. c #EA7621",
"#. c #E87926",
"$. c #E17C34",
"%. c #DE5A26",
"&. c #8B754D",
"*. c #B86B43",
"=. c #B57B41",
"-. c #A07D72",
";. c #C57640",
":. c #6B9728",
">. c #729D2E",
",. c #739F27",
"<. c #6D9736",
"1. c #769B37",
"2. c #6C882D",
"3. c #74A22C",
"4. c #7AA52D",
"5. c #7BAA2D",
"6. c #75A92A",
"7. c #75A333",
"8. c #7AA533",
"9. c #76AB34",
"0. c #7CAB33",
"q. c #7AA63A",
"w. c #77AA3A",
"e. c #7CAC3B",
"r. c #75A439",
"t. c #7DB135",
"y. c #7EB23B",
"u. c #779E42",
"i. c #7DAC43",
"p. c #79A442",
"a. c #7FB341",
"s. c #5F9750",
"d. c #8A933C",
"f. c #A68B35",
"g. c #B19338",
"h. c #81AD35",
"j. c #82AD3B",
"k. c #82A43B",
"l. c #82B335",
"z. c #84B33C",
"x. c #89B53E",
"c. c #85BA3C",
"v. c #89BA3D",
"b. c #82B937",
"n. c #B3A439",
"m. c #A1AA3F",
"M. c #C8953C",
"N. c #D18A33",
"B. c #ED852B",
"V. c #ED962F",
"C. c #F19839",
"Z. c #EE8D31",
"A. c #C9A83A",
"S. c #F0A133",
"D. c #F9A13E",
"F. c #F8B93C",
"G. c #ECB13E",
"H. c #87C13D",
"J. c #F9C93C",
"K. c #FAD13C",
"L. c #889444",
"P. c #9D9843",
"I. c #958841",
"U. c #A58B43",
"Y. c #A59844",
"T. c #A59D50",
"R. c #83AD42",
"E. c #89AA46",
"W. c #97A94A",
"Q. c #83B444",
"!. c #89B644",
"~. c #86BB44",
"^. c #8BBC44",
"/. c #85B54A",
"(. c #8AB64A",
"). c #86BC4B",
"_. c #8BBC4C",
"`. c #94B44B",
"'. c #91BB4B",
"]. c #95B747",
"[. c #8BBB52",
"{. c #95BC53",
"}. c #ACA94C",
"|. c #9D8166",
" X c #B0887B",
".X c #CF934E",
"XX c #F39F41",
"oX c #E99447",
"OX c #D9BC46",
"+X c #D7A74C",
"@X c #F3A646",
"#X c #F6B453",
"$X c #F8B555",
"%X c #EDB046",
"&X c #DAB967",
"*X c #CFBF6A",
"=X c #E4BD69",
"-X c #87C242",
";X c #8BC344",
":X c #8DC34A",
">X c #8EC94C",
",X c #8AC548",
"<X c #91C54D",
"1X c #92CA4D",
"2X c #93C547",
"3X c #8EC252",
"4X c #8EC753",
"5X c #92C454",
"6X c #94CA53",
"7X c #9ACC54",
"8X c #95CB5A",
"9X c #9ACC5B",
"0X c #96C658",
"qX c #9AD15A",
"wX c #B1C853",
"eX c #9BCD62",
"rX c #DAC242",
"tX c #DDCA43",
"yX c #CFC854",
"uX c #E8D65A",
"iX c #E3D150",
"pX c #E7C952",
"aX c #DDCC71",
"sX c #F3DF77",
"dX c #EED86E",
"fX c #F6E37C",
"gX c #F8E27B",
"hX c #90938B",
"jX c #B7A29E",
"kX c #CB9B84",
"lX c #DFC0AF",
"zX c #E2DDD9",
/* pixels */
":.,.8.8.8.8.w.q.r.j.R.j.Q.(.Q.(.'.Q.R.q.e.e.e.i.e.a.a./.i.r.r.r.w.q.e.e.Q.t.y.9.6.t.y.9.w.9.3.:.",
":.,.,.0.8.8.7.8.q.k.Q.R.!.(._.(.(.Q.R.(.).e.Q.j.E.M._ ^ 5 5 5 1.r.E.Q.Q.a.t.y.9.9.y.y.w.6.6.6.9.",
":.>.8.h.e.8.e.q.j.j.(.Q.R./.(./.E._./.Q.z.i.h.N.} _ ) ) ( / +.5 5 2.!.e.y.a.9.t.t.c.H.c.l.c.t.t.",
"7.>.>.j.8.8.Q.j.!.(.(.R./._.a.R.).).(././.a.N.XX%XZ.) ) ) _ _ / / B h 0.a.y.y.y.H.y.~.~.^.c.~.c.",
"4.8.>.j.0.8.e.!.z.z._./._.Q.i.).)./._.Q.!.g.@X#X$XZ.) ) ) ) ) ) ) / F d.a.~.y.c.-Xy.^.c.^.~.^.z.",
">.8.>.7.3.r.e.j.j.y.Q.Q.(.Q.[.).a.e.Q.).}.) $X$X$XV.) ) ) ) ) ) ) ) C g ,X:X,X;X>X>X0X2X2Xc.;X;X",
"3.8.0.e.r.e.z.e.y./.(.[.(.i.(.[././.).].n.) C.$X@XB.) ) ) ) ) ) ) ) V G L.3X:X6X7XqX7X<X<X2XH.-X",
"3.0.8.7.3.r.e.e.Q.y.e.Q.Q././.[././._.Y.+.) _ @XB.) ) ) _ _ ) ) ) #.' S p 5X:X6X7X7X7X7X5X-X;X;X",
":.3.7.>.>.<.z.9.w.w.e.e.Q./././.p.[.[.L.H +.) _ ) ) ) ) { | Z ) #. .W D 6 9X1X,X<X6X6X6X6X,X2X>X",
":.>.>.r.3.3.e.r.y.e./././.(._.[./.[.0Xd % R ) ) ) ) ) +. .[ O { | | *.e & 6X5X3X<X1X7X7X1X1X2X:X",
"0.:.q.e.7.8.9.e.a.i.a././.3X0X{.0X0X8Xs.k | _ ) ) ) ) ) R     . > m W q $ 5X<X3X:X>X6X3X1X>X2X:X",
"8.r.8.r.e.e.Q.Q.Q./.Q.)._.3X3X5XeX[.[.[.W.#.) _ ) ) ) ) Z.jXX l 1 S W q $ ).:X:X:X:X,X1X1X1X:X,X",
"0.j.j.Q.e.Q.Q.Q.Q.(.Q._._.<X0X9X4X0X[.u.a #._ _ ) ) ) ) oXzXo l 4 S *.q $ :X:X).:X-X3X:X1X7X1X1X",
"8.0.j.l.e.Q.a.a.w.Q.<X5X_.[.1XwX{.4XE.&.T C._ _ ) ) ) ) $.hXl c A J *.e $ 0X_./.4X3X4X6X7XqX1X>X",
"x.j.!.^.z.z.~.Q.a.~.).5X{.3XwXwX0X5Xd.| #XC.) ) ) ) ) ) / B x *.S I E w $ 8X8X3X3X}.W.`.6X>X7X1X",
"z.!.!.!._.Q.~.a.~.).^.{.{.wXG.).5X0Xh H oX) +.) ) ) ) @.+./ J J m S K a r ).5X_.`.U.I Y >X7X0X6X",
"z.x.!._.^.^.(./.<X].}.F.K.pX[ 3X0X9Xh m | @.| +.@.@.#.[ J 4 : : K W 8 t [.[._.=.W } N y 7X6X:X;X",
"h.j.z.z.^.).{.`.+XpXJ.J.F.%.{.4X[.0X0XL.b o.( ( | m : : 4 o zX*.I E 8 . o 5 | +.@.' p y ~.<X2X2X",
"e.j.j.^.^.<X`.X.F.K.J.F.F.%.{.eX4X3X0X{.W.;.5 5 5 4 9 c hX4 *.I v S 8 < K I +.@._ _ { N = -X2X:X",
"e.Q.Q.Q.z.~.(.C.J.V.V.S.} W.[.8X3X0X8X8X{.`.u.& D m 4 e m J E @ D I K K W W | | | 6 O y i.:X-X;X",
"j.j.z.z.z.^.g.G.K.B.o.o.' 3X{.eX[.8X4X8X3X).).2.N C V V U m 1 q I *.W I E E I 8 , i s <.4X;X-X;X",
"h.j.e.z.L.g.C.J.V.o.#.#.' 3X[.{.[.8X8X3X4X,X:X:XT B n 6 e S q *..X&X.XJ D *.2 f d i.:X:X5X0X5X:X",
"!.k.y.w.k.` K.K.V.O.B.S.[ U.Y.wX9X8X5X{.8X:X:Xm..XU N 3 6 Q W .XdXfXaX! b q i a.,X>X:X5X6X1X:X>X",
"k.j.0.8.g.+.K.K.K.V.V.S.` ` ' tX0X0X8XeX0X4X_.N.@XZ.B.} | R ] lXgXgXsX$XX.. >X;X>X1X:X7X7X<X5X1X",
"h.z.0.f.+.K.K.K.J.J.J.C.` X._.~.:X3X8X8XqX4X:X~ oX#X$XD.+.R n &XyXdXlXgXyX* p.).-X>X1XqXqX1X1X;X",
"h.j.t.f.O.iXK.K.F.F.%XZ.[ ].).-X).).3X4X8X4X).p [ @X$XC._ +.( b b .XgXgXsXdX$ i.1X2X>X1X1X1X>X>X",
"j.8.e.f.O.C.K.K.o.S.V.` ' ).^.[.5X3X4X8X6X>X-X1Xu V _ ) / v ( ; / 3 z fXfXlX# e.;X2X;X1X1X>X>XqX",
"x.0.t.j.g.( J.H n ^ o...`.:X:X[.5X3X8X4X8XqX3X-X7 - O 7 / ; n J < &.aXfXfXfX}.y i.>X;X1X>XH.,X,X",
"k.y.z.!._.g.N.n : M X.}.[.).:XG E.L.L.8X9X9X<XY < 1 q e 3 o @ < d.*XsXfXgXgXaX* p.:X6X6X>XH.,XH.",
"!.l.z.^._.^.o.| D ~ W.<X<X(.h hX&.|.-.u.5XT.Y.U b H [ H 6 g z z uXfXfXfXgXlXaX* u._.;X:X,X-XH.,X",
"y.!.Q.x.).:X#.@X..Y.1X3X(.d &.lXK  X-.N Y Q ' _ _ _ ) o.N.uXsXsXfXfXfXfXgXgXpXa j R.;X-XH.H.>XH.",
"8.z.l.c.<X:XB.@X..T.7X6Xi.* hX;.;.Q | S 5 R _ _ _ _ @.@.Z.fXfXfXfXfXfXfXgXgXOX..5 h -X^.,X,XH.,X",
"t.h.5.c.^.c.*.@X;.P.:X1X:X/.X rXtXg.Q S v Q ) ) ) ) ) _ V.fXfXfXfXfXfXfXfXfXOX..o s -XH.;X1X;XH.",
"l.z.5.x.c.~.Q +.| P._.,X0X/.X OXJ.iXM.Q *.Q +.@.) ) ) @XfXfXfXfXfXfXfXfXfXsXQ E o s >X>X1X1X1X,X",
"0.z.8.~.^.z.*.| } X.U.,X3XR.6 Q A.tXM.Q E W | +._ _ ) @XfXfXfXfXfXfXfXfXsXpXv J o s >X2X-X1X<X:X",
"t.6.0.j.z.z.*.Q #.+.X.=.U.).E.v A.tXM.E E W W | | { _ C.fXfXfXfXfXfXfXdXOX=.J E o s H.1X1X2X:X1X",
"5.5.4.8.t.c.d.D ] { +.{ X.U.U.@ ~ OX.XQ W W W W E | ' oXfXfXfXfXfXdXiXiXA.N I 0 i w.c.;X>XH.2X;X",
"h.h.5.0.0.t.k.F L | { ) @.} [ N 8 T ! Q K , , , b J ! OXuXuXuXiXuXiXJ.n.a D K o >.-Xb.H.c.-X].^.",
"h.h.l.l.l.h.l.P.F L | [ { ) ) ) 6 0 q q w , , , 7 D J A.tXtXtXtXtXtXn.a 8 E a y 9.-X2XH.H.b.;X^.",
"l.l.x.x.z.z.l.x.a D E ! | { +.+.| 0 o o < W W E W S N ~ tXtXtXtXn.n.a y I G = u.;XH.-Xv.2Xv._.<X",
"h.x.h.z.h.v.].x.].Y T f.U ....Q E E E E E E ....! +XtXtXrXA.n.n.2 o q P p & ^.^.].H.v.;X^.c.v.<X",
"k.h.h.l.h.h.v.j.0.h.f + N OXOXW E Q Q Q Q E OXrXrXrXrXtXA.4 o X A K I p % R.x.^.^.v.c.~.x.l.c.].",
"h.,.h.4.h.j.h.h.0.x.l.c.2.. . ; A.tXtXtXtXtXtXtXtXT -     X K E *.E W D u :X(.(.^.'.z.^.x.z.v.c.",
"4.3.4.4.4.3.4.4.0.5.l.l.i.<.2.k.G 3 % % % % % % % j q.>.d X K E E E ' { V p ~.{.!.l.~.c.v.v.v.v.",
"h.h.4.4.4.3.h.h.4.5.h.j.Q.^.c.x.2.j d d s d d d d w.2X1Xv.d 3 E E ' +.+.| S g R.y.6.z.b.c.l.l.l.",
"4.,.3.,.4.,.3.4.5.0.0.l.z.0.x.^.v.^.].^.^.].<Xv.H.2XH.2X2X].f 8 8 H o..XkXm hXa >.5.t.t.t.v.v.c.",
"4.4.4.4.6.5.6.5.l.h.5.h.l.l.l.v.x.v.;X].^.^.2X2XH.2X2X;XH.H.b.r r u A x |.+ hXi :.,.6.5.5.t.l.l.",
"h.4.h.h.h.h.5.h.h.5.4.l.h.h.c.l.l.v.z.l.x.z.v.v.2XH.v.;Xx.H.v.l.b.i # o # # $ :.6.9.6.t.t.h.t.5."
};
