/* XPM */
static char *result[] = {
/* columns rows colors chars-per-pixel */
"48 48 251 2 ",
"   c #010003",
".  c #050907",
"X  c #160305",
"o  c #061309",
"O  c #111409",
"+  c #000614",
"@  c #2E0F0F",
"#  c #361A0C",
"$  c #341D11",
"%  c #0A270F",
"&  c #003716",
"*  c #292916",
"=  c #3E2A16",
"-  c #313311",
";  c #022D31",
":  c #322F2E",
">  c #4C0E10",
",  c #750402",
"<  c #6B140E",
"1  c #761A0B",
"2  c #4F2E19",
"3  c #552C19",
"4  c #4A361B",
"5  c #723112",
"6  c #763917",
"7  c #5F3720",
"8  c #672D28",
"9  c #6A3B22",
"0  c #354718",
"q  c #0F4423",
"w  c #715218",
"e  c #59691E",
"r  c #50532C",
"t  c #67482C",
"y  c #774329",
"u  c #755A23",
"i  c #476427",
"p  c #546C2A",
"a  c #527D2F",
"s  c #5A7837",
"d  c #766B2A",
"f  c #717330",
"g  c #1B4D4A",
"h  c #50504A",
"j  c #4B6453",
"k  c #6E6C4A",
"l  c #5F6363",
"z  c #87120D",
"x  c #872309",
"c  c #8E2F0D",
"v  c #8B361B",
"b  c #943719",
"n  c #9D351C",
"m  c #8F4D19",
"M  c #B74B0D",
"N  c #B14C11",
"B  c #B94B14",
"V  c #A7561B",
"C  c #B95415",
"Z  c #BB631B",
"A  c #884A2B",
"S  c #994726",
"D  c #8C532D",
"F  c #93522F",
"G  c #99552C",
"H  c #945533",
"J  c #A34C29",
"K  c #A8572C",
"L  c #AB552E",
"P  c #B35326",
"I  c #A95632",
"U  c #A45A33",
"Y  c #AD5B33",
"T  c #B35D33",
"R  c #BA5E37",
"E  c #826B29",
"W  c #8F7031",
"Q  c #AC6A2C",
"!  c #AC663B",
"~  c #B56335",
"^  c #BB6536",
"/  c #B46538",
"(  c #B96538",
")  c #BD6B3A",
"_  c #A87A37",
"`  c #B97537",
"'  c #C55813",
"]  c #E24D19",
"[  c #E4581D",
"{  c #D96B0E",
"}  c #D7681A",
"|  c #DE711C",
" . c #E4611C",
".. c #EC7616",
"X. c #ED7817",
"o. c #E4741C",
"O. c #EB7719",
"+. c #E3781A",
"@. c #ED7A19",
"#. c #F17B17",
"$. c #E25A21",
"%. c #C66626",
"&. c #CB6C2D",
"*. c #D46C25",
"=. c #D76328",
"-. c #D46E2A",
";. c #CC732A",
":. c #DC7223",
">. c #D87428",
",. c #C36A33",
"<. c #C66A35",
"1. c #D06F31",
"2. c #C77635",
"3. c #E46321",
"4. c #E77922",
"5. c #81764D",
"6. c #BA7E44",
"7. c #89716C",
"8. c #C47848",
"9. c #5A8136",
"0. c #729E2B",
"q. c #658736",
"w. c #6F9234",
"e. c #789835",
"r. c #76A62C",
"t. c #7BAB2D",
"y. c #6EA436",
"u. c #74A433",
"i. c #7BA634",
"p. c #76AB33",
"a. c #7CAC34",
"s. c #74A43B",
"d. c #7CA63C",
"f. c #75AA3C",
"g. c #7CAC3C",
"h. c #7CB235",
"j. c #7DB23C",
"k. c #7FB83B",
"l. c #5C944C",
"z. c #7AA645",
"x. c #7CAC44",
"c. c #7CB543",
"v. c #7DB751",
"b. c #7FC14A",
"n. c #95882B",
"m. c #8A8737",
"M. c #928A33",
"N. c #84973A",
"B. c #A8883D",
"V. c #B98D37",
"C. c #A89C39",
"Z. c #82A937",
"A. c #83AE3C",
"S. c #9AA73B",
"D. c #82B535",
"F. c #84B936",
"G. c #84B53B",
"H. c #88B73D",
"J. c #85BA3C",
"K. c #89BB3D",
"L. c #A9A437",
"P. c #D88219",
"I. c #D68B2E",
"U. c #C88936",
"Y. c #CA973A",
"T. c #ED8828",
"R. c #F18C2A",
"E. c #EB942C",
"W. c #ED8D35",
"Q. c #F49B3B",
"!. c #CBA83A",
"~. c #D2A93C",
"^. c #C8B63B",
"/. c #D5BB3C",
"(. c #ECA733",
"). c #F7A937",
"_. c #F7B735",
"`. c #87C23D",
"'. c #DCC53F",
"]. c #DDCB3D",
"[. c #E6CA3C",
"{. c #F9C738",
"}. c #FBCC3A",
"|. c #FBD339",
" X c #9E9C45",
".X c #909049",
"XX c #AE8645",
"oX c #A79947",
"OX c #A89957",
"+X c #83AE41",
"@X c #84AB48",
"#X c #9AA749",
"$X c #84B443",
"%X c #8AB544",
"&X c #85BB44",
"*X c #8BBC44",
"=X c #85B549",
"-X c #8AB64A",
";X c #86BB4A",
":X c #8BBD4B",
">X c #96B84A",
",X c #8CBE51",
"<X c #94BC51",
"1X c #A4A747",
"2X c #ABB64D",
"3X c #948476",
"4X c #A88374",
"5X c #D0934C",
"6X c #D7AB4F",
"7X c #DDB842",
"8X c #EAA546",
"9X c #F5AB49",
"0X c #F0AE50",
"qX c #F6B755",
"wX c #C38B72",
"eX c #D2B163",
"rX c #85C142",
"tX c #8CC245",
"yX c #8AC945",
"uX c #85C24B",
"iX c #8CC34B",
"pX c #8ECA4C",
"aX c #92C548",
"sX c #91C54B",
"dX c #92C94D",
"fX c #8EC452",
"gX c #8ECA52",
"hX c #92C552",
"jX c #94CA53",
"kX c #9ACC54",
"lX c #94CB59",
"zX c #99CA58",
"xX c #93D655",
"cX c #ADCC54",
"vX c #CFCA49",
"bX c #D9C843",
"nX c #E5D542",
"mX c #E5CF52",
"MX c #DDCC73",
"NX c #EDDA65",
"BX c #EFDD6A",
"VX c #E9D575",
"CX c #F1D470",
"ZX c #F7E57C",
"AX c #F6E47D",
"SX c #9C938C",
"DX c #CFA393",
"FX c #CCAEA6",
"GX c #F9E780",
"HX c #EACDB8",
"JX c #F3E1D5",
/* pixels */
"u.u.i.s.d.+X+X+X=X$X-X$X<X=Xx.d.u 1 1 1 } 4.U.&Xj.;Xf.s.s.f.p.u.+Xj.g.$Xh.j.p.p.p.j.f.p.p.0.r.0.",
"0.u.s.d.i.Z.$X+X@X:X:X-X@Xe.6 6 C ' } } ..X.| I.I.#Xf.s.s.f.j.x.-X$Xc.j.h.j.h.h.k.h.G.p.r.r.p.p.",
"u.A.d.Z.A.%X%X$X=X=X:X*Xm.E M B { X.O.O.X.X.T.Q.Q.Y.S.p.y.s.c.=X=Xd.c.j.j.p.p.p.k.$X&XG.D.k.D.h.",
"i.A.H.A.:X-X-X@X-X:X=Xf G M #.#.@.@.@.O.X.X.R.qXqXQ.I.S.f.f.c.iX:Xc.&Xj.c.h.k.`.J.K.K.:XuXJ.K.H.",
"f.u.%XK.j.%X=X$X-X=Xc.< N #.X.X.X.X.X.X.X.X.R.qXqXqX).| c.$Xg.c.&X&X;X;Xc.j.k.yXJ.`.K.H.*XtX&XG.",
"A.g.A.Z.g.%X$X=X-X$XN.A B ..X.X.X.X.X.X.X.X.T.9XqX9XQ.I.S.%Xc.$X$XuXiXiXiXiXyXiXiXgX:X:X*X*XtXtX",
"u.G.g.j.$X=X-X-X=Xz.6 J %.O.X.X.X.O.+.@.X.X.@.@.0XR.X.O.I.#XiXiXiXjXlXjXiXtXdXkXkXkXdXaXdXtX`.rX",
"u.g.f.G.$Xc.g.$X=Xd.1 I ,.&...X.o.} &.O.X.X.X.X.T.@...o.T >XjXjXjXjXlXzXhXiXkXkXkXkXkXkXaXtXtXaX",
"0.g.f.a.g.p.f.j.$Xd.$ G / ( 1.4.m m 4.&.o.X.X.X...X.| Q = z.,XfXjXjXiXjXzXsXiXjXjXkXsXkXpXtXdXtX",
"0.x.i.c.g.x.=X$X=Xz.o F ( T v 6 . . c -.O.X.X.X.X.X.;.H ; z.uXiXiXjX:XiXjXfXiXhXsXkXjXjXpXdXdXtX",
"r.p.g.j.j.c.=X=X,X@XO D ( I < + . : 5.4.X.X.X.X.X.X.o.` l.v.fXjXiXiXhX<XhXfXfXpXgXjXjXjXjXdXiXiX",
"i.j.%X$X=X$X=X=X,X@XO D / I < g % l JX@.X.X.X.X.X.X.X.>.l.v.fXfXiXgXfXjX:X:XiXiXiX&XsXdXdXpXiXtX",
"c.$X%Xj.;X$X=X,X,Xz.O H ( I 6 j ; l HXT.X.X.X.X.X.X.@.;.= z.,X,XkXkXiXiXiXiX:XiXrXyX:XiXdXkXpXdX",
"$X$X-XA.@X:X:X,X<Xz.. H ( ( Y ! l h c ..X.X.X.X.X.X.R.9X0X` #XhXkXmXcXjXjXuX=XfXjXfXhXjXkXkXpXaX",
"x.&X.X! _ -X:XhX,Xz.O F R I x I ! ~ +.X.X.X.X.X.X.X.X.T.qXm m.zXzXcXbXcXlXlXuXuXsXiXjXjXjXdXkXdX",
"$X&Xt m 2.B.XX-X,X,Xq.4 A Y S b z c N -.o...X.X.X.>.=.4.5X1 W hXjXlXI.6XvXvX6X>XfXgXpXdXdXjXkXkX",
"%X%X& * *.*.-.` .Xf 9.o 3 ( ^ S 8.7.> x P B B -.@.3.4.} n E @XlXjXlXoXI.(.|._.bX6X6XyXyXdXjXsXtX",
"*Xs w V >.X.X.:.P z >   7 T J R FX7.> 7.8 > 8 n ' ' ' %.d =XlXlXlXjXb.B. .|.{.nXnX9X1XsXdXdXpXiX",
":X* m V Z :.4.:.-.( / 3 9 T v A V N A SXy 8 8 v > 9 W oX,X,XfXlXgXfXiXoXI._._.)._._.>.>XpX*XdXdX",
"iXs.-   * G U / ,.( ( U R ) U @ t K J z 1 , c L . q.@X<XfXfXfXc.uXfXfXiXL.3._.T.E.{.(.2XaXaXtXiX",
"j.iXx.w.9.X X A ( ( <.) ( P L L = @ c o.o.o.' 5 s.c.c.c.v.;XuXuXuXiXfXiX2X[  .[ T.|.{.>.S.yX&X;X",
":X&XiX,X,Xz.x.- 8 ( v J 5XVXMX8.I I A 6 5 6 b I b.c.c.c.uX&XuXuX&XuXgXgX>X .).4.3.T.|._.I.V.yX*X",
"%XfX:XhXjX,X,Xz.i 3 M 6XCXAXAXCX5X<.Y y V M ;.8XY.S.&Xc.c.;XiX;XsXvXU.2.;.3.{.T.4._.}.|.T.1.jXyX",
"%X:X,XhX;X,X,X,Xs   8XAXAXAXAXZX6.S ) -.E.Q.).qX;.2XgX&XuXfXjXgXsXvX2X1.] 3.{._.).|.|.|._.I.V.jX",
"&X$X:X:XfXfX,Xz.s t VXAXGXAXeXeXU N -.X.9XqX0X9XJ #XiXiXuXfXjXgXjXjXjX1X-. ._.|.}.{.|.|.|.(.$.tX",
"iXfXsXiX,XfXlX0 r ZXGXAXMXeXx , M ..+.X.9X0X).} y @X;XjXlXlXgXfXlXjXgXpX>X[ W.{._.).|.|.|.).] pX",
"iXiX:XhXfXjX=Xr k ZXAXAXk # } b C M x X.{ { M , iXjXhXlXlXjXjXjXjXdXpXdX2X=.] E.E.} {.{.).W.-.kX",
"&X*X:XiXiXgX- k MXAXAXAXVXOX. A b 5 x } 2 + # 1 %XsXzXlXuXjXjXpXjX:XyXdXsX1X=.=.B x v (.T.U.<XpX",
"tXiX%X:XlXfX* .XAXAXAXAXGXMXOX>       3 9 A 8   u @X:XiXiX<Xm.n.=Xw A.pXtXdX1X2.n , , *.V.S.`.rX",
"iX%XtXzXjXpXo .XGXGXAXAXAXGXAXOX.X.XE 6 %.>.%.m M _  X#XxXe.4X7.W FXE N.dXjXfX1X` J 2. .L.`.yX`.",
"*XtXsXsX>XM.t XXBXGXAXAXAXAXAXAXAXNXmX&.O...X.O.X.:.&.! N.b wXwXF FX4Xk q.pX:XiX X2.0XR.L.yXyXrX",
"tXdXhXaXZ.> G !.mXAXAXAXAXGXAXAXAXZXCX....X.X.X...X.>.K , K ^ ` V.P.3Xj i pXuXfX X2.0XT.C.yXyXtX",
"*XaXiXtXs.O F Y.mXGXAXAXAXAXAXAXAXAXCXE.T...X.O.X.X.>.L v L ` Y.bXbX- i &XdXiXaX1X<.8X2.S.yXrXtX",
"K.K.*XK.e.O D ) 5XAXAXAXAXAXAXAXAXAXAXCXR.X.X.X.X.X.*.^ T R Y.bX[.bX- i dXjXaXiX X,.4.,.oXjXiXtX",
"K.*XtXtXs.O F b Q mXAXAXAXAXAXAXAXAXAXAXR.X.X.X.@.-.,.( ( ( ~.[./.U.1 d sXkXkXoX2.:.,.^ 1XyXiXtX",
"K.*X*X`.e.  F T ! U.bXAXAXAXAXAXAXAXAXAXR.X.o.&.&.^ ( ( ( ( ~.[.!.b m.*X<XXXXX2.o.o./ ( 1XdXhXiX",
"H.G.F.F.Z.p 4 F L S /.NXNXNXAXAXAXAXAXAXI.-.&.( / ( ( / ( ( Y./._ @ W 1XXX-.*.+.o.%.S B.>XpXtXsX",
"D.F.aXK.F.F.o 9 J v n.bX].nXBXBXBXNXBXBX5X` ~ J y A A D ( ( 5XB.9 5 P &.-.#.X.o.&.Y v Z.iX*XtXaX",
"a.j.G.H.t.F.0 9 U ~ @ W ^.nX].].].].].].^.` S x = $ $ $ H F F 3 3 { #.#.@.4.| &.T I B.H.K.:X*X*X",
"j.D.H.H.h.F.h.i 4 U U $ d ^.^.].nXnX].bXm c b T U U U A + o o 7 T +.o.o.:.,.2.~ J u H.`.F.K.sX%X",
"D.F.H.Z.tXH.G.d.p @ G G 9 + * C.^.^./.].~.!.Y.` ) ( ) / F F F U ^ ,.2.;.,.~ V.G E N.aX`.aXK.:XsX",
"H.>X*XG.*XH.D.K.Z.s = U U D A 4 - w W '.'.].'.^.!.7XU.R R R ^ ^ ~ / Y.!.V.z 4 d Z.`.tXtXK.D.K.>X",
"Z.K.%XG.G.G.D.k.%XH.> F ( <./ D A 3 @ u w u V.[.nXnXnX7X7X7X/.7X!.b e u w e.w.s.K.K.K.tXG.J.tX*X",
"Z.Z.i.i.G.G.D.c.e.d N *.,./ ~ ) <.y   a 9.s w n.n.n.n.n.n.n.n.B._ d i i 9.tXhX*XK.H.%XH.G.H.K.K.",
"t.t.0.Z.Z.t.F.m.u n =.O.:.<.^ ( F 7 p aXkXkX@Xq & & q q & & & - d *X>X*X&X:X<X-X$XH.*XF.H.G.K.H.",
"0.t.Z.r.r.t.0.d F I 8.>.o.| F F 2 i :X:XaXdX*XtXtXaX`.&X%X%X%X%X*X*X*XH.H.H.%XG.u.D.F.F.K.D.G.D.",
"0.r.Z.t.t.a.* SXDXv JXwX-.Z X   p %XaX>XK.K.aX`.aXaXyXaX`.tXaX`.sXtXK.J.G.A.a.h.r.a.h.h.G.H.F.D.",
"r.r.Z.t.A.f.s.r : + h * # - %X%X*XaX:XtXtXK.aX`.tXaX`.`.K.G.%XK.H.K.&XG.p.a.i.r.r.r.h.r.t.D.Z.D."
};
