/* XPM */
static char *result[] = {
/* columns rows colors chars-per-pixel */
"49 49 187 2 ",
"   c #000000",
".  c #0B0202",
"X  c #0B0B0B",
"o  c #120101",
"O  c #190101",
"+  c #100F0F",
"@  c #1F0A0A",
"#  c #0D1207",
"$  c #0F1308",
"%  c #151C0B",
"&  c #101508",
"*  c #141414",
"=  c #191717",
"-  c #191919",
";  c #210101",
":  c #2C0202",
">  c #2A0D0D",
",  c #310202",
"<  c #360603",
"1  c #26180F",
"2  c #3E1414",
"3  c #1A240C",
"4  c #252F13",
"5  c #293A14",
"6  c #2D3E19",
"7  c #293416",
"8  c #252525",
"9  c #2D2D2D",
"0  c #312E2E",
"q  c #2E3722",
"w  c #313131",
"e  c #3C3A3A",
"r  c #4D0101",
"t  c #420303",
"y  c #5A0404",
"u  c #620303",
"i  c #730505",
"p  c #641F1F",
"a  c #423D3D",
"s  c #682121",
"d  c #344A17",
"f  c #334619",
"g  c #364B1A",
"h  c #394D1C",
"j  c #364519",
"k  c #3B531C",
"l  c #3F591E",
"z  c #384525",
"x  c #3E5424",
"c  c #425B1E",
"v  c #46611F",
"b  c #455D22",
"n  c #485E24",
"m  c #435523",
"M  c #404A32",
"N  c #485236",
"B  c #466221",
"V  c #496424",
"C  c #4A6128",
"Z  c #516F2A",
"A  c #54732C",
"S  c #597B2E",
"D  c #5A7E30",
"F  c #607F35",
"G  c #454343",
"H  c #4B4A4A",
"J  c #595454",
"K  c #625C5C",
"L  c #6A6664",
"P  c #736B6B",
"I  c gray44",
"U  c #7C7C7C",
"Y  c #830202",
"T  c #8B0606",
"R  c #950606",
"E  c #A40707",
"W  c #AE0606",
"Q  c #BA0606",
"!  c #9F2222",
"~  c #B33535",
"^  c #CE0404",
"/  c #C40606",
"(  c #D30404",
")  c #DA0404",
"_  c #D90C0C",
"`  c #D70E0E",
"'  c #D71717",
"]  c #D71D1D",
"[  c #D52323",
"{  c #D32E2E",
"}  c #C63E3E",
"|  c #CD3838",
" . c #D23838",
".. c #837A7A",
"X. c #D04141",
"o. c #5D842B",
"O. c #5E8231",
"+. c #62802F",
"@. c #6B9B2A",
"#. c #739D2F",
"$. c #638435",
"%. c #678E35",
"&. c #6B9434",
"*. c #6D9934",
"=. c #6D953C",
"-. c #739E33",
";. c #719C3B",
":. c #71963C",
">. c #74A42C",
",. c #7AA62E",
"<. c #75A92D",
"1. c #7BAB2D",
"2. c #74A426",
"3. c #7DB02E",
"4. c #6FA237",
"5. c #75A433",
"6. c #7AA633",
"7. c #76AA33",
"8. c #7CAC33",
"9. c #7AA639",
"0. c #7DAC3B",
"q. c #77A93C",
"w. c #7DB334",
"e. c #7DB33B",
"r. c #7EB839",
"t. c #77B139",
"y. c #7EAC41",
"u. c #79A441",
"i. c #7EB341",
"p. c #80A92F",
"a. c #81B32F",
"s. c #81AD34",
"d. c #82AE3C",
"f. c #85A93C",
"g. c #82B335",
"h. c #83B43C",
"j. c #8AB63C",
"k. c #85BA3C",
"l. c #8ABB3D",
"z. c #84B635",
"x. c #86C03D",
"c. c #8CC03E",
"v. c #81AE43",
"b. c #83AC48",
"n. c #84B343",
"m. c #89B543",
"M. c #86BB42",
"N. c #8BBC42",
"B. c #84B549",
"V. c #89B54A",
"C. c #86BA4A",
"Z. c #8CBA4A",
"A. c #90BC49",
"S. c #90B949",
"D. c #8DBB51",
"F. c #87C143",
"G. c #8BC243",
"H. c #8EC449",
"J. c #8CC845",
"K. c #92C44B",
"L. c #92C94D",
"P. c #94C449",
"I. c #96CC54",
"U. c #99CF54",
"Y. c #97CA55",
"T. c #948A8A",
"R. c #959595",
"E. c #8C8B8B",
"W. c #A49999",
"Q. c #A2A2A2",
"!. c #AEAEAE",
"~. c #ACA3A3",
"^. c #B1A7A7",
"/. c #B5ACAC",
"(. c #BDB6B6",
"). c gray73",
"_. c #C6BFBF",
"`. c #D0CDCD",
"'. c #DEDEDE",
"]. c LightGray",
"[. c #C9C3C3",
"{. c #E7E5E5",
"}. c #EDEDED",
"|. c #E9E7E7",
" X c #F0EFEF",
".X c #F8F8F8",
"XX c #F4F4F4",
/* pixels */
"6.8.5.0.6.9.q.v.d.d.V.m.n.D.S.n.v.v.d.d.i.q.i.i.y.B.i.4.4.q.7.4.v.e.n.7.e.8.<.t.8.e.7.7.>.>.>.<.@.",
"6.8.>.>.5.9.9.f.n.b.m.V.Z.V.b.V.u.;.;.=.*.&.;.;.=.=.=.o.O.O.o.%.b.i.i.e.t.t.w.e.e.m.<.7.>.7.<.7.<.",
"0.0.0.0.0.f.0.m.n.n.V.V.V.V.B.V.$.$ $ $ $ # $ $ # $             A n.e.i.t.t.w.w.k.N.h.g.k.w.w.e.7.",
"6.s.6.6.d.f.V.V.V.y.D.C.y.B.C.D.$.                              A i.e.e.e.e.r.k.r.k.Z.M.k.k.w.z.w.",
"5.9.7.6.d.N.e.m.C.B.D.b.y.C.M.B.D                               Z C.C.C.r.r.J.k.G.C.h.F.N.k.l.w.w.",
"#.5.6.6.h.d.0.n.B.:.=.D O.O.D D n               o . o o o o . o j A A A A A A O.C.P.A.l.N.F.k.g.3.",
"0.8.6.0.n.q.h.V.u.3             . ~ X.X.X.E E E E E E E E E E E t             & b.L.L.Y.G.x.L.l.<.",
"5.5.5.q.0.0.m.q.;.3             . ~ X.X.| E E E E E E E E E E E t             & b.Y.Y.K.G.x.L.K.k.",
"-.-.#.-.e.q.6.t.*.3             . ~ X.X. .E E E E E E E E E E E t             $ b.K.I.H.G.L.L.L.k.",
"-.5.#.6.7.o.B V B 1 @ @ @ @ @ @ > ~  . .{ W W W W W W W W W W W y ; : < , , : < z k x D K.L.G.H.k.",
"9.9.>.5.0.f       s } } ~ X.X.X.| ` ) ) ) ) ) ) ) ) ) ) ) ) ) ) Q E E E E E E R O     6 L.H.H.G.G.",
"9.9.d.0.n.f       s X.X.X.X.X.X. .` ) ) ) ) ) ) ) ) ) ) ) ) ) ) Q E E E E E E R O     6 J.H.F.H.G.",
"0.h.0.n.B.g       s X.X.X.X.X.X.X._ ) ) ) ) ) ) ) ) ) ) ) ) ) ) Q E E E E E E R O     f I.H.H.G.J.",
"V.0.0.M.n.g       s X.X. . .{ { { _ ) ) ) ) ) ) ) ) ) ) ) ) ) ) / Q Q / E E E R O     6 U.H.H.M.x.",
"m.N.0.h.B.d       s X.X.X.' ) ) ) ) ) ) ) ) ) ) ) ) ) ) ) ) ) ) ) ) ) ) W E E R O     6 I.U.L.N.k.",
"m.N.Z.n.M.d       s X.X.X.' ) ) ) ) ) ) ) ) ) ) ) ) ) ) ) ) ) ) ) ) ) ) W E E R O     6 U.L.K.N.H.",
"m.V.n.n.v.f       s X.X.X.' ) ) ) ) ) ) ) ) ) ) ) ) ) ) ) ) ) ) ) ) ) ) W E E R ; . . 7 u.;.;.0.L.",
"M.V % % % 1 s s s ! [ ] ' _ ) ) ( u r r r r r r r r r r < : : : R ) ) ) ( ( ^ ^ R T T u       m L.",
"m.b       t X.X.X.[ ) ) ) ) ) ) ^ ;                             Y ) ) ) ) ) ) ( W E E i       g c.",
"n.b     X 2 X.X.X.[ ) ) ) ) ) ) ( ;                             Y ) ) ) ) ) ) ) W E E i       g l.",
"0.c       2 X.X.X.[ ) ) ) ) ) ) ^ ;                             Y ) ) ) ) ) ) ) W R E i       g F.",
"h.b       . > > > > : : : O O O O       = '.'.'.`.T.T.T.e                                     h H.",
"w.k                                     - .X.X.X|.W.W.W.a                                     g k.",
"5.k                                     - .X.X.X|.W.W.W.a                                     d M.",
"1.l                                     - .X.X.X{.W.W.W.a                                     k x.",
"g.l                                     - .X.X.X{.W.W.W.a                                     g L.",
"0.l                                     - .X.X.X{.W.W.W.a                                     g G.",
"e.l                                     - .X.X.X|.W.W.W.a                                     k G.",
"e.b       X 8 e H H H H H H H H H X     * !.!.!.E.J J J 8       G I I I I I I P H J K G       g k.",
"h.C       H .X.X.X.X.X.X.X.X.X.X}.8                             R..X.X.X.X.X.X X^.W.W.P       g F.",
"M.b       H .X.X.X.X.X.X.X.X.X.X}.8                             R..X.X.X.X.X.X X^.W.W.P       g k.",
"h.c       H .X.X.X.X.X.X.X.X.X.X}.8                             R..X.X.X.X.X.X X^.W.W.P       k x.",
"1.&.c c B M U U U )..X.X.X.X.X.XXXQ.R.R.R.R.R.R.R.Q.!.!.!.!.!.!.'..X.X.X[.(.(.^.G 0 0 z 4.*.*.q.x.",
"8.N.l.N.N.h       U .X.X.X.X.X.X.X.X.X.X.X.X.X.X.X.X.X.X.X.X.X.X.X.X.X.X/.W.W.T.=     6 I.H.k.k.G.",
"6.j.g.M.H.h       U .X.X.X.X.X.X.X.X.X.X.X.X.X.X.X.X.X.X.X.X.X.X.X.X.X.X/.W.W.T.=     6 H.H.x.c.k.",
"0.V.M.h.m.h       U .X.X.X.X.X.X.X.X.X.X.X.X.X.X.X.X.X.X.X.X.X.X.X.X.X.X/.W.W.T.=     6 L.I.K.H.m.",
"w.d.z.k.z.g       U .X.X.X.X.X.X.X.X.X.X.X.X.X.X.X.X.X.X.X.X.X.X`././.^.W.W.W.T.=     5 J.l.P.N.A.",
"6.6.z.w.N.h       U .X.X.X.X.X.X.X.X.X.X.X.X.X.X.X.X.X.X.X.X.X.X_.W.W.W.W.W.W.T.=     5 J.A.l.H.l.",
"3.1.g.0.h.g       U .X.X.X.X.X.X.X.X.X.X.X.X.X.X.X.X.X.X.X.X.X.X_.W.W.W.W.W.W.T.=     5 G.Z.N.A.N.",
"g.h.d.g.g.k       U .X}.'.'.{.'.'.XX.X.X.X.X.X.X.X{.{.{.{.{.{.{.~.......U P P L z 5 5 V c.A.m.j.N.",
"h.j.s.l.j.-.&.&.o.6 w 9 8 8 8 8 w '..X.X.X.X.X.X|.~.^.W.~.~.~.~.H + + + X X X % @.M.n.N.M.A.K.m.z.",
"g.d.s.m.A.m.N.j.5.3             X ]..X.X.X.X.X.X|.W.W.W.W.W.W.W.a             # 5.G.K.g.k.j.N.j.p.",
"s.8.p.f.j.m.8.h.5.3             X ]..X.X.X.X.X.X{.W.W.W.W.W.W.W.a             $ -.l.M.h.j.H.G.l.j.",
",.8.p.s.6.6.s.g.6.h 3 3 3 4 5 6 7 R.!.!.!.!.!.!.W.P P P P P L K N h j x g h n C 0.m.g.h.j.l.l.l.l.",
",.,.,.2.,.6.s.1.g.n.n.g.h.N.h.N.+.                              A P.N.N.B.N.Z.h.h.N.j.z.h.l.l.g.j.",
"#.p.>.,.8.8.2.1.0.n.m.j.j.j.h.N.$.                              S Z.N.d.m.h.h.<.8.z.z.G.k.z.z.g.z.",
"2.2.,.>.,.,.8.8.g.s.h.s.h.l.z.N.$.                              A F.l.h.0.s.8.<.7.w.<.g.z.j.g.a.a.",
",.,.1.1.1.1.s.s.1.s.s.h.h.l.m.l.d.n b c c V c B B B b B b c n n @.N.e.w.<.8.2.2.<.w.1.0.8.g.z.z.l.",
"s.p.p.s.1.s.p.p.p.g.s.g.l.a.z.z.h.s.j.z.j.l.P.c.c.H.j.l.l.j.m.j.h.8.r.1.8.3.<.w.<.1.w.0.s.1.3.3.s."
};
