/* XPM */
static char *result[] = {
/* columns rows colors chars-per-pixel */
"49 49 231 2 ",
"   c #160E07",
".  c #251809",
"X  c #281917",
"o  c #200A05",
"O  c #2C230D",
"+  c #2F280B",
"@  c #312C0E",
"#  c #2E231B",
"$  c #2B2717",
"%  c #322C14",
"&  c #322C17",
"*  c #363413",
"=  c #36341B",
"-  c #373718",
";  c #2C3118",
":  c #181A25",
">  c #2A1D24",
",  c #2D242B",
"<  c #2C2625",
"1  c #312A28",
"2  c #363624",
"3  c #2D2434",
"4  c #322C38",
"5  c #35323D",
"6  c #343135",
"7  c #1E2518",
"8  c #3E421B",
"9  c #3F4326",
"0  c #41461D",
"q  c #434B1D",
"w  c #434A23",
"e  c #4C5928",
"r  c #525D26",
"t  c #4F622C",
"y  c #546729",
"u  c #5C742C",
"i  c #596C34",
"p  c #5E7433",
"a  c #4F6031",
"s  c #627D34",
"d  c #637D3C",
"f  c #60782B",
"g  c #342D43",
"h  c #373549",
"j  c #3A3A5D",
"k  c #363554",
"l  c #252E46",
"z  c #103678",
"x  c #3C3C66",
"c  c #2F3F6D",
"v  c #112244",
"b  c #3F4257",
"n  c #3F456C",
"m  c #3F467E",
"M  c #414A5E",
"N  c #454B6C",
"B  c #424568",
"V  c #495169",
"C  c #42467A",
"Z  c #495375",
"A  c #545D79",
"S  c #6E757C",
"D  c #6A727A",
"F  c #6A9A2A",
"G  c #739D2F",
"H  c #688A37",
"J  c #6E923D",
"K  c #6C9433",
"L  c #759D3E",
"P  c #729739",
"I  c #6B8932",
"U  c #74A42C",
"Y  c #7AA62E",
"T  c #76A92D",
"R  c #7BAB2D",
"E  c #74A426",
"W  c #7DB02E",
"Q  c #6FA137",
"!  c #75A333",
"~  c #7AA633",
"^  c #75A933",
"/  c #7CAC33",
"(  c #7AA63A",
")  c #76AA3B",
"_  c #7CAC3B",
"`  c #71A539",
"'  c #7EB334",
"]  c #7CB13C",
"[  c #7FB83B",
"{  c #6D9242",
"}  c #739943",
"|  c #6C8945",
" . c #7BA545",
".. c #7DAD43",
"X. c #7AA448",
"o. c #7DB142",
"O. c #7FB648",
"+. c #7BA553",
"@. c #81B32F",
"#. c #81AD34",
"$. c #82AE3D",
"%. c #85A93C",
"&. c #82B335",
"*. c #83B33C",
"=. c #8AB63C",
"-. c #85BB3C",
";. c #8ABC3D",
":. c #84B635",
">. c #80A92F",
",. c #8BC13E",
"<. c #85C13D",
"1. c #81AE42",
"2. c #83AC4B",
"3. c #84B444",
"4. c #89B543",
"5. c #85BB44",
"6. c #8ABC44",
"7. c #84B44A",
"8. c #8AB64B",
"9. c #86BA4A",
"0. c #8BBC4C",
"q. c #91BD49",
"w. c #90BA48",
"e. c #8CBD52",
"r. c #8FBB58",
"t. c #91BE53",
"y. c #86C142",
"u. c #8BC244",
"i. c #8CC845",
"p. c #8DC34B",
"a. c #8ECA4C",
"s. c #87C448",
"d. c #91C446",
"f. c #92C44C",
"g. c #93CA4D",
"h. c #8EC152",
"j. c #92C452",
"k. c #95CB52",
"l. c #9ACC55",
"z. c #96C757",
"x. c #98D155",
"c. c #A2CF5C",
"v. c #0F3B95",
"b. c #15449C",
"n. c #1A449C",
"m. c #19479C",
"M. c #0C429A",
"N. c #28499C",
"B. c #2F559D",
"V. c #1C4AA1",
"C. c #1C51A4",
"Z. c #244CA1",
"A. c #374FA1",
"S. c #2552A5",
"D. c #2A56A6",
"F. c #3757A6",
"G. c #3B67AF",
"H. c #484D86",
"J. c #4B548D",
"K. c #4D5599",
"L. c #4C5495",
"P. c #515B9B",
"I. c #525E83",
"U. c #566385",
"Y. c #5A6B98",
"T. c #5F719C",
"R. c #69789A",
"E. c #626F8A",
"W. c #4C59A5",
"Q. c #4858A6",
"!. c #525BA5",
"~. c #535DA9",
"^. c #484FA6",
"/. c #5661AC",
"(. c #5964AE",
"). c #486EB3",
"_. c #5D6CB3",
"`. c #5669B2",
"'. c #5875B8",
"]. c #4D6FB0",
"[. c #6276A8",
"{. c #6373B5",
"}. c #667BB4",
"|. c #6476B8",
" X c #647BBC",
".X c #6A7DBC",
"XX c #687BB6",
"oX c #626EB2",
"OX c #7587AA",
"+X c #6981B5",
"@X c #6B84BD",
"#X c #6A87BF",
"$X c #7388B9",
"%X c #6683C1",
"&X c #6C85C2",
"*X c #6E89C4",
"=X c #718CC7",
"-X c #728DC8",
";X c #7686C1",
":X c #7691CA",
">X c #7A95CC",
",X c #7D98CE",
"<X c #7B95C5",
"1X c #7F9DD1",
"2X c #8599BB",
"3X c #849BCE",
"4X c #8497C8",
"5X c #839ED1",
"6X c #87A1D3",
"7X c #8BA5D5",
"8X c #8EA9D7",
"9X c #94AEDB",
"0X c #95AAD3",
"qX c #96B0DC",
"wX c #9BB3DC",
"eX c #89A1CD",
"rX c #A2B6DC",
"tX c #9CB5E0",
"yX c #A6BCE1",
"uX c #ACC2E4",
"iX c #B2C8E7",
"pX c #B5CAE8",
"aX c #B7CCE9",
"sX c #BDD2ED",
"dX c #C6D8EE",
"fX c #C6DAF1",
"gX c #CBDEF2",
"hX c #CDE0F4",
"jX c #D3E4F5",
"kX c #D6E8F9",
"lX c #CFE1EF",
/* pixels */
"~ / ! _ ! ( ( ..$.1.4.7.4.8.w.4.1.1.$._ ] _ o.3...7.o.Q Q ) ` ! J t * . O e F ^ ) ] / ^ U U U T F ",
"~ / U ! ! ( ! %.3.1.1.8.0.8.1.7.2.4.3...3.] 7.O._ o.O.) Q ` H w # , b V b $ - K _ *.T ^ Y ^ T ^ T ",
"_ #._ _ _ %.$.4.7.4.4.7.8.7.8.8.7.3.3.3.] o.o.o.) ) ) ] ` H 8 > N R.$X&X+XA 1 q _ 6.*.-.[ ' / ' ^ ",
"~ #.~ ~ $.$.8.8.4.1.e.7.3.1.9.e.0.3.7.o.] 3.o.) o.] ^ ` ^ t X U.0XtX9X1X=X@XV & K *.0.-.-.-.' -.[ ",
"! _ ~ ! $.4.*.3.0.7.8.3.O.9.7.3.3.3.3.3.O.5.5.s.s.9.O.) o.9 6 2XsXgXyX8X-X;XI.O H 4.*.6.6.-.-.' ' ",
"G ! ~ ^ $.*._ *.7.1.e.1.8.9.3...3.9.0.9.] O.3.f.k.s.O.) O.= V qXfXgXuX8X,X&XI.O } p.q.4.-.u.-.:.T ",
"#.( ^ _ 3._ *.8.0.e.e.1.e.r.8.9.9.h.0.0.0.5.3.5.6.9.o.a.O.7 D wXfXgXuX8X3X.XM 8 8.j.g.k.i.-.g.=.R ",
"! ! ! ( _ _ 3._ _ 3.0.3.3.e...0.0.9.3.3.s.p.O.s.j.*.O.9.+.7 OXwXdXgXyX9X,XY.X = r y | 1.u.<.f.f.<.",
"G G G L ] ^ ^ ) ) o.3.3.7.O.X.e.0.9.7.9.h.9.p.p.9.0.s.O.a 1 4XwXsXfXtX9X5XT.1 5 h 5 X $ e P p.i.-.",
"G ~ G Y _ ' _ _ 3.3.8.8.e.r.O.e.h.p.9.8.e.9.7.0.8.9.O.X.. A 9XqXuXiX9X9X9X4XOXOXOXOXY.V # = J p.-.",
"( ~ ! U ) _ o...7.0.e.e.z.h.h.j.r.p.h.2.H e - ; ; $ = 8   OXqXqXqXwX9X9X9X9X9X9XqXqX0XeXR.5 8 L ,.",
"( _ _ _ 3.*.0.3.7.9.9.h.h.h.z.h.h.8.i & . 1 b Z N Z n 6   6 [.,XqX9XwX5X|.3X9X9XqXqX9X9X3XY.= i i.",
"..*._ 3.3.3.3.8.3.h.0.j.z.z.z.r.{ 8 # h I.T.XX@X&X$X+X[.Z n M.C.%X6X,X(.`.eXqXqXqXqX9X5X:X+Xh 0 i.",
"7./ *.3.3.3.) 0.p.h.e.h.h.h.e.p # 4 I.+X3X5X7X8X7X:X{.(.~.Q.A.n.V.Q.~.oX3XqXqXqXqX6X>X-X-X[.6 q -.",
"4.4.] *.3._ _ 9.9.j.e.h.e.h.| X g T.<X6X9X9XqX3X.X~.~.|.|.|. X'.D.v.F.3XqXqX9X6X,X:X-X*X@XN = s -.",
"4.6.0.3.5.3.9.p.5.h.p.j.r.{ O h T.3XuXaXwX9X;X(.(.;X4X8X8X-X=X*X|.D.v.#X9X7X,X-X=X-X-X*XU.X i *.a.",
"4.0.6.9.3.7.e.p.e.9.7.e.2.w X Y.,XuXgXgXrX;X(.oX4X5X9X9XqX3X-X=X*X`.n.S.:X>X*X-X=X=X&X{.b X ( 6.g.",
"4.*.6.j.t.e.h.0.7.9.8.O.d o Z :XrXhXjXfX;X^.@X8XqXqXqX9X9X8X,X=X-X%XQ.z J.*X*X|.'._.(.J.1 e 3.j.g.",
"3.6.6.0.j.8.e.h.h.O.e.} w 3 }.7XdXjXhXwX^.{.8X9XqXqX9X9XqX9X5X-X=X&X(.x , m H.n x B B x & s p.y.u.",
"3.4.4.6.9.8.h.e.e.9...H # B =XqXdXkXyX{._.7XtXqXqXqX9XqX9XqX8X:X=X*X XC X > > < 1 1 , X 8 _ 5.5.-.",
"&._ *.4.0.4.e.9.7.5.O.i X Y.>X9XuXaX;X(.3XsXfXuX9X9XqX9XqXqX8X:X-X*X%XL.3 * H J } J I s K 4.5.y.5.",
"*.1.o.9.s.0.t.o.9.] O.e , '.,X9XqX-XD. XqXdXjXpX9XqX9X9X9X9X8X:X=X=X&X!.h * 7.p.p.h.j.p.f.s.p.p.i.",
"/ _ *.p.h.h.h.h.O.9.+.w h +X>X9X7X).S.>XqXyXpXtX9X9X9XqXqXqX8X-X-X=X@X~.k %  .p.s.p.q.z.k.p.a.5.=.",
"T _ 5.4.p.h.h.h.h.z.r.9 k %X:X9X,XN.).7X9XqXwX9XqX9X9XqX9XqX5X-X-X*X XW.j +  .f.k.a.z.k.p.j.a.4.5.",
"^ ] 6.9.9.0.9.0.e.e.7.9 g +X-X8X Xv.-XqX9X9X9XqX9X9X9X9XqX9X4X=X-X*X|.!.k @  .i.k.g.l.k.p.j.i.i.,.",
"' ] ] p.p.p.0.h.j.h.8.e < _.-X1X).V.5XqX9X9XqX9X9XqXqX9XqX5X-X=X-X&X_.W.k * 7.6.p.k.x.k.g.a.j.p.a.",
"_ ! H J J J } +.} X.} a X U.-X%XS.G.5XqX9X9XqX9XqX9X9XqX8X:X=X=X=X.X~.K.4 0 8.f.i.s.g.g.a.a.a.s.i.",
"*.e * - = = = * & @ & . o : L.`.b.'.9XqX9XqXqXqX9XqXqX8X>X-X=X=X&XoX~.C & s f.p.s.f.a.i.a.g.5.y.,.",
"K ; v n B B B x n B B N N n ~.Q.b.).3X8XtXqXqXqX9X8X5X:X-X-X=X=X|.~.!.h *  .j.k.g.k.g.i.<.i.<.<.-.",
"r $ z Q.oX{.|.|.}. XXX+X+X@X.X'.S.b.).:X5X5X5X8X5X3X:X=X-X-X=X X/.~.H.# r j.0.h.6.f.p.y.-.u.<.<.y.",
"* l M.B.'. X%X%X-X:X-X-X-X-X*X:X%XD.Z.'.:X-X:X-X-X-X=X=X-X=X X(.~.J.g ; X.s.p.0.u.u.s.y.i.a.s.;.5.",
"O k N.b.V.V.Z.S.D.].*X-X*X=X8XpXtX'.V.F.-X-X-X-X-X-X-X=X&X_./.~.L.k . H s.p.p.f.u.s.i.-.i.<.u.<.<.",
"* 5 J.F.A.N.Z.Z.n.Z.).*X:XwXdXfX0X`.Z.C.+X*X-X*X*X&X.X|.`./.~.H.h < y 3.f.g.f.p.s.<.u.u.i.y.y.,.;.",
"y $ x K.!.~.!.!.A.N.V.'.qXhXkXrX{.{.F.v.(._._._._._.(./.~.L.C 6 & y ) i.g.g.p.6.y.i.f.g.g.p.-.-.u.",
"G q < g x H.~.~.~.^.b.G.iXkXuX{.oX0XU.v C J.K.!.!.W.K.J.C h 1 - s 7.s.a.f.c.g.u.u.a.u.i.d.f.y.,.;.",
"/ P y 8 1 3 H.~.~.~.A.Z.eXrX|.W.$XdXD : 2 , 4 5 5 5 4 3 < 8 i } 0.p.z.x.j.l.l.g.i.i.g.g.g.k.f.s.=.",
"/ _ ) K u % k ~.~.~.Q.n.)..XW./.wXlXS 7 u t q 0 0 0 w r u J ..u.p.s.g.l.l.p.f.i.i.i.i.a.i.6.d.q.q.",
"~ _ &.' *.r < P.~.~.W.m.b.~.~. XuXlXS ; 9.6. .L  . . .3.p.0.5.5.6.s.g.l.k.k.4.,.-.u.p.-.u.6.;.d.;.",
"/ / #.~ / u o H.~.~.~.Z.b.Q.~.;XpXlXD ; 0.g.f.u.6.g.k.5.s.p.6.s.p.a.a.p.p.q.,.u.-.:.-.-.6.f.4.q.6.",
"&.&.$.&.$.K . j ~.~.~.A.M.A.oX>XuXdXD ; 6.g.a.f.f.k.p.0.p.f.p.p.p.a.j.0.g.q.u.;.i.,.,.;.,.0.=.=.6.",
"&.=.$.=.=.%.0 > J.~.~.Q.n.v.'.%X<X<XM = 6.a.u.u.k.g.i.y.f.l.f.p.f.f.6.u.f.q.d.,.<.,.6.6.;.w.f.4.:.",
"&.$.#.=.0.*.H % g H.K.W.A.v.D.F.D.N.l 8 a.l.d.g.g.l.g.f.z.t.j.p.h.a.u.f.6.6.4.6.;.i.d.-.;.;.6.=.>.",
"#.#.#.#.$.$.~ f = , h x A.N.Z.N.Z.N.g 0 l.k.f.f.g.i.a.f.6.z.w.6.g.a.f.=.6.6.6.w.;.6.5.*.=.d.u.;.=.",
"Y ~ / %.~ >.#.:.I e 0 = # h K.W.~.K.5 e l.c.g.k.l.6.-.q.8.f.j.6.u.5.4.0.6.w.w.0.4.=.:.*.=.;.=.;.;.",
"Y Y ! G Y Y / R #.1.J p 0 . k P.~.H.1 i d.j.g.g.g.u.,.d.u.6.0.6.p.d.6.6.4.6.0.*.*.=.;.*.*.4.=.:.=.",
"E >.U R #./ E Y / *.*.$.G q . b C j = H q.q.d.d.f.g.d.d.u.u.u.6.6.0.6.&.3.*.] T / :.:.u.-.:.:.:.:.",
"E G Y E Y Y / / $.#.*.#.*.$.y - 1 2 y 1.d.w.d.u.u.d.d.i.;.*.6.0.p.u.4.-./ $.^ T / ' T &.:.-.:.@.@.",
"R R >.R R R #.#./ #.&.&.$.=.%.f y p %.*.;.d.,.,.d.d.;.,.;.*.0.4.*.-.*.' Y ' E E T ' ~ ' / &.&.:.=.",
">.>.>.>.R :.#.>.>.#.#.&.;.@.:.:.&.#.=.=.-.;.d.,.,.d.=.;.;.4.=.=.' / [ R / W T ' T W ' / / / W W #."
};
