/* XPM */
static char *result[] = {
/* columns rows colors chars-per-pixel */
"48 48 218 2 ",
"   c #000000",
".  c #090C05",
"X  c #0B0B0B",
"o  c #070707",
"O  c #120A09",
"+  c #0E1207",
"@  c #151616",
"#  c #0C1215",
"$  c #2D1919",
"%  c #271414",
"&  c #351C1C",
"*  c #1C260F",
"=  c #1E2911",
"-  c #29271A",
";  c #273314",
":  c #15252C",
">  c #1A3039",
",  c #382726",
"<  c #323232",
"1  c #3A3A3A",
"2  c #35332F",
"3  c #111E23",
"4  c #432625",
"5  c #562627",
"6  c #553A33",
"7  c #4B392C",
"8  c #642225",
"9  c #682828",
"0  c #6E2629",
"q  c #662F32",
"w  c #7D2E32",
"e  c #673738",
"r  c #723C3C",
"t  c #753638",
"y  c #762C2F",
"u  c #35491C",
"i  c #3E581F",
"p  c #3E5622",
"a  c #435D1F",
"s  c #435D25",
"d  c #554331",
"f  c #6D432E",
"g  c #62483D",
"h  c #684A3F",
"j  c #785D38",
"k  c #694C32",
"l  c #4D6A28",
"z  c #536B2A",
"x  c #557329",
"c  c #657135",
"v  c #2C384A",
"b  c #36356C",
"n  c #383874",
"m  c #7A3F47",
"M  c #264957",
"N  c #3C656E",
"B  c #434343",
"V  c gray33",
"C  c #6B4D42",
"Z  c #7A4241",
"A  c #784B42",
"S  c #775345",
"D  c #745B51",
"F  c #7B6243",
"G  c #7F7D43",
"H  c #4A467C",
"J  c #544C7D",
"K  c #716D6D",
"L  c #5D6D74",
"P  c #943439",
"I  c #9A3438",
"U  c #8B3031",
"Y  c #AB373A",
"T  c #C13A3B",
"R  c #8D7C34",
"E  c #AB3C40",
"W  c #B13E42",
"Q  c #C13E41",
"!  c #834A4A",
"~  c #8A544E",
"^  c #8C5854",
"/  c #954F50",
"(  c #B04F53",
")  c #9C6359",
"_  c #817046",
"`  c #A26B5B",
"'  c #B0745C",
"]  c #BC5C68",
"[  c #897D7D",
"{  c #BE686B",
"}  c #AC7864",
"|  c #B97F6F",
" . c #B47A6A",
".. c #A46F61",
"X. c #C14248",
"o. c #C14146",
"O. c #C54E53",
"+. c #C8565B",
"@. c #CB5E64",
"#. c #CD6368",
"$. c #6E9929",
"%. c #729E2D",
"&. c #678A38",
"*. c #739E36",
"=. c #6D973C",
"-. c #75A22D",
";. c #7AA62E",
":. c #7BAA2E",
">. c #77AA2C",
",. c #76A332",
"<. c #7AA633",
"1. c #7CAB33",
"2. c #73A43C",
"3. c #79A63A",
"4. c #7CAC3B",
"5. c #76AA37",
"6. c #7DB235",
"7. c #7DB23C",
"8. c #729E40",
"9. c #7EAD43",
"0. c #78A243",
"q. c #7EB241",
"w. c #998839",
"e. c #81AE35",
"r. c #81AD3B",
"t. c #82A73C",
"y. c #82B236",
"u. c #84B33C",
"i. c #89B63E",
"p. c #85BA3D",
"a. c #89BB3E",
"s. c #89C03E",
"d. c #878749",
"f. c #82AE43",
"g. c #89AD48",
"h. c #84B443",
"j. c #89B644",
"k. c #86BB42",
"l. c #8BBC44",
"z. c #87B549",
"x. c #89B64A",
"c. c #86BA49",
"v. c #8BBC4B",
"b. c #90BF49",
"n. c #BCA546",
"m. c #BE8674",
"M. c #BC846B",
"N. c #C58C78",
"B. c #CD937E",
"V. c #D39973",
"C. c #E5967D",
"Z. c #DDA465",
"A. c #D3B451",
"S. c #8CC344",
"D. c #8EC44B",
"F. c #8FC94B",
"G. c #8BC745",
"H. c #90C446",
"J. c #91C54C",
"K. c #92C94D",
"L. c #93C651",
"P. c #95CB52",
"I. c #99CB54",
"U. c #8FC650",
"Y. c #FADB5C",
"T. c #FADC61",
"R. c #3E778C",
"E. c #454581",
"W. c #4C4B85",
"Q. c #427D95",
"!. c #45778B",
"~. c #78788F",
"^. c #7777A2",
"/. c #957E92",
"(. c #A37C80",
"). c #498BA5",
"_. c #4D8FA9",
"`. c #599BB5",
"'. c #5493AC",
"]. c #45839B",
"[. c #939292",
"{. c #888888",
"}. c #AE8A8C",
"|. c #8282A8",
" X c #A5A5A5",
".X c #B6B1B1",
"XX c #A092AB",
"oX c #D39B83",
"OX c #D79D87",
"+X c #D79497",
"@X c #DFA48A",
"#X c #DBAB93",
"$X c #DCB39D",
"%X c #CFA994",
"&X c #E3AA8D",
"*X c #ECB38D",
"=X c #E9B595",
"-X c #F4BB8F",
";X c #C4ACAC",
":X c #F8C090",
">X c #F4C49F",
",X c #E8C194",
"<X c #FAC9A3",
"1X c #F5C5A0",
"2X c #EEDFAA",
"3X c #9A9AC0",
"4X c #B0B0D0",
"5X c #C8C8C8",
"6X c #D7D7D8",
"7X c #C6D6DD",
"8X c #E6D9D9",
"9X c #F3DDDE",
"0X c #FCF2DA",
"qX c #EBEBEB",
"wX c gray89",
"eX c #FEFEFE",
"rX c #F3F3F4",
"tX c #D1E2E8",
/* pixels */
"$.%.-.1.<.<.3.3.3.r.f.i.f.j.j.z.v.j.f.f.4.4.4.4.q.q.9.q.9.0.2.5.5.4.9.4.q.7.6.5.5.5.6.5.5.>.>.-.",
"$.%.-.1.1.<.<.3.3.t.f.h.g.x.x.z.x.z.f.j.z.q.h.q.q.h.q.q.9.9.2.2.7.q.c.q.7.7.6.6.6.6.7.6.5.>.5.>.",
"%.%.,.1.e.5.4.t.r.f.j.h.h.z.x.z.x.x.z.h.q.9.q.q.q.q.q.4.2.q.5.2.q.c.c.h.q.q.7.6.6.7.k.k.p.u.6.6.",
"%.-.-.t.1.3.r.r.h.j.z.z.z.z.h.z.c.x.x.z.c.c.q.q.q.q.q.q.5.5.5.q.q.c.c.h.q.7.7.7.s.p.7.G.k.k.s.p.",
",.<.%.4.<.<.4.h.i.h.z.z.x.h.u.u.z.f.g.f.f.f.9.f.h.h.h.f.q.3.3.9.3.f.z.c.c.h.q.7.s.s.c.S.c.p.S.p.",
",.<.%.,.,.3.r.u.r.7.h.z.x.q.j y f f f f f f f f f f f f d k f f f f f v.D.F.G.D.G.G.P.U.S.S.p.v.",
"-.<.<.5.5.3.4.r.7.h.z.z.x.h.f 0 9 9 9 9 9 9 9 9 9 9 9 9 9 9 9 9 8 0 q U.P.U.D.L.P.I.I.P.K.K.S.S.",
"-.<.<.<.,.3.4.4.h.q.4.l * * U Y Y W W W W W W W W W W W W W W E ( ] ( = = x D.L.P.I.I.I.L.H.S.S.",
"%.%.,.*.%.*.4.5.4.7.4.p   o U T T X.X.X.X.X.X.X.X.X.X.X.X.X.X.X.+.@.@.    s L.D.L.I.P.P.K.K.F.H.",
"$.%.*.,.-.,.3.4.7.4.q.p   o I T o.X.X.X.X.X.X.X.X.X.X.X.X.X.X.X.O.O.O.    s L.U.D.L.P.P.P.K.K.G.",
",.%.<.<.,.5.5.7.u.h.c.s   o I X.X.X.X.X.X.X.X.X.X.X.X.X.X.X.X.X.X.X.X.    s K.D.U.D.U.P.K.K.K.F.",
"3.<.<.4.4.4.u.q.h.a u 7 0 0 E X.X.X.X.X.X.X.X.X.X.X.X.X.X.X.X.X.X.X.X.0 0 6 s s 9.D.F.F.K.K.K.F.",
"1.4.r.r.r.h.h.h.h.o   8 o.X.X.X.X.X.X.X.X.X.X.X.X.X.X.o.X.X.X.X.X.X.X.X.X.8   . 8.D.D.F.K.P.P.K.",
"1.r.r.u.r.h.h.h.7.o   8 X.X.X.X.X.X.( E P P P P P P P P P I ( X.X.X.X.X.X.9   . 8.U.U.U.P.I.P.K.",
"r.r.j.j.h.h.c.q.q..   5 X.X.X.X.E U U % X X X X X X O O X % w U E X.X.X.X.9   . 8.U.U.P.P.P.I.K.",
"u.i.j.j.l.h.h.h.c.o   8 X.X.X.X.w O o 2 B B B B B B v @ X o o o U X.X.X.X.8   . =.U.L.U.K.P.P.P.",
"u.i.j.l.l.x.v.x.D..   8 Q Q Q ( w O X  XqXqXqXqXqXqXwX<   o X X U Q Q W Q 0   . 2.D.U.J.K.P.K.D.",
"r.r.h.h.l.v.0.&.&.7 , w W Y ] #.m # X  XqXqXqXqX6X X.XV v 2 X X / +.@.E E m 2 7 &.&.8.K.J.K.H.K.",
"r.r.u.l.v.v.u     *X-X' 9 q XX4X~.@ X  XqXqXqXqXK o X .XqX5X@ X '.4X4X8 0 } <X=X-   ; x.K.G.G.D.",
"r.h.i.h.j.l.u     &X-X` 5 5 |.XX~.B v .XqXqXqXqX[.< < 5XqX5XB 1 ^.3XXX5 5 ) >X=X,   = D.D.D.S.D.",
"u.u.u.h.u.h.u     @X@XS O O b E./.7X6XrXeXeXrXeXqX6X6XrXeXrX6X6X^.W.W.O . S &X@X$   = F.D.D.G.S.",
"r.r.r.4.h.c.u     oX@XS     b n /.rXeXeXeXeXeXeXeXeXeXeXeXeXeXeX^.n n     h @XB.-   = v.L.L.K.D.",
"i.r.u.5.7.l.x.x.j.@ . , r r m.OX/.W.E.E.H E.E.E.E.E.E.E.E.H E.E.}.oXOXr r 4 X @ =.c.c.L.L.L.L.U.",
"t.r.4.1.h.h.x.x.x..   4 ! ! B.@X(.W.W.n b b H H H H H n b n H H }.@X@X! ! 4   . *.K.F.L.I.P.L.F.",
"t.u.1.7.u.x._ S A o   h B.oXOX&X@X$X$XB # X $X$X$X$X%X< # < %X$X#X@X@XoXoXC   . 2.K.K.K.P.P.P.U.",
"r.r.6.7.7.D._ h Z o   S @X@X@X@X=X<X<X6     <X<X<X<X>X,   - =X<X=X@X@X@XOXS   X 2.D.F.K.P.P.F.F.",
"e.1.4.6.4.~ M.B.N.( ( / ~ ~ B.@X&X&X&X~ q 6 <X<X<X<X1X~ e A @X&X@X@X@X~ ~ _ 9.0.v.D.G.K.K.K.F.U.",
"u.e.u.4.t.j  .&X&X@.@./ r r m.oXoXOXOX) ! ! <X<X<X<X>X) ! ^ oXOXoXoXoXr r _ P.P.L.H.F.K.K.F.G.G.",
"r.4.i.h.f.Z | &X@X#.@.Z $ $ 7 6 A ) )  .| | =X=X=X=X&XN.|  .` ` C 6 6 $ $ z F.L.L.L.D.L.D.S.G.G.",
"u.u.i.l.g.j | OX#X#.@.q         $ r m m.@X@X@X@X@X@X&X@XOXB.! Z %         s F.D.L.D.D.F.S.G.s.G.",
"u.u.i.k.S.d.S g C 5 5 q t t [ [.D , & 6 g g g g g g g g g D ;X;X^ t t t t d p s 9.D.D.S.S.G.G.G.",
"r.u.u.k.S.H.u         q @.#.9XeX X#                     o < qXrX+X@.@.@.@.t   X 2.D.S.S.S.G.G.G.",
"1.y.1.p.k.a.&.l l z l j / ( 8XeX6X[.[.d.R R w.R j e e d.[.[.}.}.OXC.C.C.&X) 4 4 f.l.G.s.G.G.G.S.",
"u.e.1.i.a.j.s.S.H.s.v.G Z A 8XeXeXeXeX2XY.Y.Y.Y.Z.{ #.qXeX8X~ Z B.:X:X:X:X#.r j g.b.F.F.F.F.K.D.",
"e.y.1.j.j.p.a.l.s.a.S.c , 4 K {..XeXeX:XZ.Z.Y.Y.Z.Z.V.qXeX8XS Z B.*X*X*X*X .r ! g.J.J.H.G.F.K.H.",
"1.:.1.u.i.p.a.a.a.a.p.l         V rXeX+X#.{ Y.Y.Y.T.T.0XeX8X! Z m.@X@X&X&X .f h g.L.H.H.K.K.D.K.",
"1.:.:.1.u.y.p.a.p.s.p.a     3 : L 7XtX[ / ~ n.n.n.n.n.2X0X2Xe 5 ..N.N.N.N.} _ ~ j.S.S.G.H.G.G.H.",
"y.1.;.e.6.y.u.a.y.y.y.a   o !.`.'.).).>           . . n.T.A.O o 5 r Z Z Z G L.H.l.s.p.s.S.p.v.H.",
"y.e.e.y.y.e.u.u.y.y.p.x ; ; N !.Q.)._.M : : 3 : #   . w.n.d.; ; k F F F F d.K.b.l.s.s.s.s.s.k.v.",
"e.y.y.i.u.u.y.i.a.a.u.l.l.j.=   v '.`.`.`.`.).).M         * b.K.U.F.U.D.D.J.K.H.H.s.S.s.s.a.l.H.",
"e.e.e.e.e.i.i.j.a.a.y.a.k.h.=   M '.`.`.`.`.).).M         % b.b.L.J.L.D.D.b.b.b.l.S.s.s.H.a.a.b.",
"t.e.e.e.e.i.j.i.u.u.y.p.p.i.=   > ].).).).).X o s v.v.v.l.b.b.I.b.J.D.D.S.b.l.l.l.a.a.j.a.a.a.l.",
"e.e.e.e.e.e.e.e.e.y.y.u.u.r.; + > R.Q.Q.Q.].+ + l P.I.K.H.H.H.H.b.v.S.S.l.S.v.l.j.l.j.a.a.u.a.a.",
"e.$.e.%.e.e.;.e.e.e.y.u.h.h.,.*.l : # # # # 9.f.z.K.K.H.k.H.H.H.H.v.v.S.v.l.l.l.b.h.i.i.a.p.i.a.",
"e.e.e.$.;.;.;.;.;.:.e.u.h.i.i.a.x .     o   J.J.J.H.H.H.H.H.H.H.H.v.D.l.k.k.j.h.h.6.y.p.p.a.y.a.",
"e.$.$.e.;.>.;.;.:.:.e.e.i.r.i.a.y.r.r.f.r.f.b.H.H.H.H.K.H.H.s.s.x.S.H.l.S.p.i.u.y.:.6.y.y.y.p.y.",
"$.e.e.e.;.;.>.;.e.e.e.e.y.y.u.i.i.a.b.b.l.l.b.s.H.H.S.H.H.s.y.e.j.v.l.j.p.7.1.<.:.>.>.6.:.6.y.y.",
"e.$.e.e.;.e.:.e.:.e.e.e.e.e.y.p.i.a.i.i.i.i.a.H.a.s.s.S.s.s.y.e.j.p.u.u.y.6.1.<.>.>.>.:.6.e.y.y."
};
