/* XPM */
static char *result[] = {
/* columns rows colors chars-per-pixel */
"48 48 220 2 ",
"   c #010100",
".  c #0B0A0A",
"X  c #070808",
"o  c #19090A",
"O  c #120C0C",
"+  c #0E1307",
"@  c #121609",
"#  c #141B0A",
"$  c #141608",
"%  c #090F11",
"&  c #0A1216",
"*  c #0F1918",
"=  c #1A1513",
"-  c #2A0F10",
";  c #2B1918",
":  c #321718",
">  c #212D11",
",  c #252616",
"<  c #283716",
"1  c #322B1E",
"2  c #182D34",
"3  c #1B3139",
"4  c #1A2A29",
"5  c #353535",
"6  c #272A2D",
"7  c #1C1C22",
"8  c #431719",
"9  c #551D20",
"0  c #562829",
"q  c #46342C",
"w  c #5C3632",
"e  c #4C2B27",
"r  c #752B2D",
"t  c #7D2E32",
"y  c #693838",
"u  c #643835",
"i  c #7E3B3D",
"p  c #78383A",
"a  c #682828",
"s  c #34471C",
"d  c #3F5622",
"f  c #3D4021",
"g  c #455B24",
"h  c #5C5525",
"j  c #4F4033",
"k  c #544D30",
"l  c #6D522F",
"z  c #6F5330",
"x  c #6D543F",
"c  c #715532",
"v  c #725F39",
"b  c #75443D",
"n  c #58782B",
"m  c #5D7E33",
"M  c #4B6729",
"N  c #7D753C",
"B  c #2D294E",
"V  c #383878",
"C  c #294953",
"Z  c #2D5565",
"A  c #464646",
"S  c #515151",
"D  c #784040",
"F  c #7E5C4E",
"G  c #795842",
"H  c #6B5E43",
"J  c #4D467A",
"K  c #584D7C",
"L  c #636363",
"P  c #747474",
"I  c #736241",
"U  c #99373B",
"Y  c #A53A3E",
"T  c #A93A3F",
"R  c #81793E",
"E  c #853E42",
"W  c #B43E44",
"Q  c #854B48",
"!  c #88564D",
"~  c #89575A",
"^  c #BB4046",
"/  c #AA4C51",
"(  c #B4565B",
")  c #A75354",
"_  c #816E43",
"`  c #827745",
"'  c #896957",
"]  c #996159",
"[  c #936557",
"{  c #90725C",
"}  c #A0665D",
"|  c #9A766E",
" . c #AA7867",
".. c #B67D6C",
"X. c #BC6573",
"o. c #B96A68",
"O. c #815762",
"+. c #C14248",
"@. c #C64E54",
"#. c #CB5E64",
"$. c #C55B61",
"%. c #D37973",
"&. c #CD6A69",
"*. c #668A2E",
"=. c #6E9929",
"-. c #729E2D",
";. c #668936",
":. c #6B9436",
">. c #729C38",
",. c #75843D",
"<. c #75A22D",
"1. c #7AA62E",
"2. c #7BAA2E",
"3. c #77AA2C",
"4. c #76A232",
"5. c #7AA633",
"6. c #7CAB33",
"7. c #74A63B",
"8. c #77AB3B",
"9. c #7CAC3B",
"0. c #78A835",
"q. c #7DB235",
"w. c #7DB23C",
"e. c #739C41",
"r. c #7EAE42",
"t. c #79A542",
"y. c #7EB242",
"u. c #7EB048",
"i. c #81AE35",
"p. c #81AD3B",
"a. c #83A739",
"s. c #82B236",
"d. c #83B33C",
"f. c #85BA3D",
"g. c #89BB3E",
"h. c #88B63E",
"j. c #90803D",
"k. c #89C03E",
"l. c #859944",
"z. c #858847",
"x. c #AC9740",
"c. c #A68B41",
"v. c #83AF41",
"b. c #87A745",
"n. c #84B443",
"m. c #89B643",
"M. c #86BB42",
"N. c #8BBC44",
"B. c #87B549",
"V. c #89B64A",
"C. c #86B949",
"Z. c #8CBC4A",
"A. c #90BE4A",
"S. c #8EB954",
"D. c #BC8673",
"F. c #B28D72",
"G. c #84B163",
"H. c #C38A77",
"J. c #C7947C",
"K. c #D58F72",
"L. c #E4B262",
"P. c #D8A07C",
"I. c #8CC344",
"U. c #8EC44B",
"Y. c #8EC849",
"T. c #91C447",
"R. c #92C54C",
"E. c #92C94D",
"W. c #93C651",
"Q. c #95CA52",
"!. c #9ACB54",
"~. c #8FC650",
"^. c #FADA5C",
"/. c #F0C75E",
"(. c #F3DA69",
"). c #3D7489",
"_. c #3F7990",
"`. c #515189",
"'. c #447E94",
"]. c #685E89",
"[. c #977B8E",
"{. c #4A859C",
"}. c #4A848A",
"|. c #498BA5",
" X c #518DA5",
".X c #5694AC",
"XX c #599BB5",
"oX c #5798B2",
"OX c #AD9090",
"+X c #B2B2B2",
"@X c #A7A7A7",
"#X c #8B8B8B",
"$X c #C89985",
"%X c #D79E85",
"&X c #DFA48A",
"*X c #D8A888",
"=X c #CCA585",
"-X c #EAAB88",
";X c #E8B192",
":X c #E3B794",
">X c #EEB48E",
",X c #DDB1B3",
"<X c #F7C298",
"1X c #FACAA3",
"2X c #EECFAF",
"3X c #FDEDAC",
"4X c #D8C98B",
"5X c #B2A6C3",
"6X c #B0B0D0",
"7X c #A6BBC3",
"8X c #D3D3D3",
"9X c #C9CED5",
"0X c #FEF4CD",
"qX c #D0DBE5",
"wX c #E6E6EE",
"eX c #EAEAEA",
"rX c #E2E2E2",
"tX c #F6E1E2",
"yX c white",
"uX c #E7DADB",
/* pixels */
"=.-.4.6.5.5.0.9.8.b.v.v.v.B.V.V.Z.B.p.v.v.9.w.w.r.y.y.u.y.t.7.7.7.9.y.w.y.w.q.8.3.q.8.8.0.0.3.-.",
"=.-.<.6.5.5.5.7.8.a.v.m.v.B.V.V.V.B.v.B.n.y.y.y.n.n.y.y.r.8.7.7.w.y.n.y.w.w.w.q.q.q.w.q.0.3.0.3.",
"-.-.4.6.9.0.a.9.a.v.B.m.B.V.B.n.V.V.V.m.y.y.y.y.y.y.w.8.8.8.8.7.y.C.C.n.d.w.w.q.q.w.f.M.f.f.q.q.",
"-.<.<.a.9.5.a.v.d.m.B.B.B.V.n.B.C.V.V.n.M.C.y.y.y.y.y.y.w.8.8.8.y.C.C.M.y.y.w.w.k.f.f.M.M.M.g.f.",
"4.5.-.9.6.7.p.m.d.n.V.B.B.l.c c c c c c c c z z c c c c l l l z c c N M.y.C.y.w.k.k.I.M.N.M.M.M.",
"4.5.-.4.4.5.p.p.d.d.n.V.B.,.a a a a a a a a a a a a a a a a a a a a v Y.~.U.Y.U.Y.Y.W.~.U.I.I.N.",
"4.5.6.5.7.0.9.p.w.n.9.s < w T Y T T T T T T Y T Y Y Y Y Y Y Y Y / / b s s t.U.~.~.!.Q.Q.E.T.I.I.",
"1.5.5.5.4.0.9.9.d.n.:.+   8 +.+.^ +.^ +.+.+.^ +.+.+.+.+.+.+.+.^ $.$.i   X >.U.~.Q.Q.!.!.Q.U.I.I.",
"-.-.4.-.>.4.9.0.9.9.:.+   8 +.+.+.+.+.+.+.+.+.+.+.+.+.+.+.+.+.+.@.@.t   X >.~.U.Q.W.!.Q.Q.Y.Y.U.",
"=.-.>.4.-.4.0.9.w.r.>.#   8 +.+.+.+.+.+.+.+.+.+.+.+.+.+.+.+.+.+.+.+.r   X e.~.~.~.Q.Q.Q.Q.Q.T.Y.",
"4.-.5.7.5.0.0.w.n M g e 9 r +.+.+.+.+.+.+.+.+.+.+.+.+.+.+.+.+.+.+.+.U 0 9 h M ;.C.E.~.Q.Q.E.E.Y.",
"9.5.5.9.9.9.w.n.>   o T +.+.+.+.+.+.+.+.+.+.+.^ +.+.+.+.+.+.+.+.+.+.^ +.^ - X # u.U.U.U.Q.Y.E.Y.",
"5.p.a.d.9.n.n.n.>   o Y +.+.+.+.+.^ ^ t t t t t t t t t t Y ^ +.+.+.+.+.^ - X # y.U.U.~.Q.Q.Q.Y.",
"5.p.p.d.p.n.n.y.>   o T +.+.+.+.Y U t . . . . . . . . . . 0 U U +.+.+.+.^ -   # r.~.~.~.Q.!.Q.Q.",
"d.p.m.m.n.n.C.y.>   o T +.+.+.+.: @ = S S S S S S S A . X . O O +.+.+.+.^ -   # u.~.~.~.Q.Q.Q.Q.",
"d.m.m.m.N.n.M.n.>   o T +.+.+.+.: & 5 eXeXeXeXeXeXeX+XX   X . . +.+.+.+.^ -   # u.~.~.E.Y.Q.Q.Q.",
"d.h.m.m.N.r.m m k j w U T +.[.#.; . 5 eXeXeXeXrX+X@X#XS S 6 . . X.X.( T Y w k k ;.;.7.U.T.Q.Q.U.",
"p.d.h.m.N.;.+ + F.:X=XU r ~ 5X5X6 % 5 eXeXeXeX8X5 O q 9X8XL % . 5X5X[.a r $X>XOX= + g E.E.T.T.E.",
"p.d.v.B.N.;.    F.2X>Xt a O.6X6X6 . 5 eXeXeXeX8X6   5 rXeXP . . 6X6X[.a r *X1X*X=   d Q.U.Y.U.U.",
"9.p.d.m.d.;.    F.*XOX= X 7 V V qXyXyXyXyXyXyXyXyXyXyXyXyXyXyXyXV V B   X F.%XD.@   d U.U.U.Y.I.",
"m.d.d.n.d.;.# @ { H.F.- o 7 J J 9XwXwXwXwXwXwXwXwXwXwXwXwXwXwXwXJ J B O o { D.F., @ M ~.U.U.I.I.",
"p.9.9.p.n.n.8.t.< ; ; w y ~ $X$X].`.`.`.`.`.`.`.`.`.`.`.`.`.`.`.$X$X .y y ; = 1 e.r.n.U.~.W.Q.U.",
"d.p.s.9.w.C.U.S.>   X y D } &X&X`.V V V V V V V V V V V V V V V &X&X..i D =   # y.U.U.~.W.W.Q.U.",
"a.p.9.9.d.C.C.Z.<   = H.&X&X&X&X>X1X*X    { 1X1X1X1XJ.X   ' 1X1X&X&X&X&X%X1   # y.Q.E.Q.!.W.~.E.",
"p.p.9.q.s.Z.U.Z.>   = H.&X&X&X&X1X1X=X    ' 1X1X1X1X$XX   F 1X1X&X&X&X&X%X1   # y.Y.Y.Q.Q.Q.~.~.",
"d.p.w.w.w.U.~.U.e.;.,.' ]  .&X&X;X;X$X0 0 F.1X1X1X1X*Xw 0  .;X:X&X&XH.] [ N ;.e.~.Y.Y.Q.Q.Q.Y.Y.",
"i.6.i.9.w.Z.Z.~.~.~.B.G D ] -X%X%X-XJ.i D D.1X1X1X1X*XD i  .&X&X-X&X..D D S.~.Q.E.U.Y.E.Q.Q.Y.Q.",
"p.p.w.s.f.I.Z.Z.g s 1 ) ( Q q q ! ] ] H.D.*X;X;X:X;X;XD.D. .] ] q q y ( ) j < d C.E.Y.Y.Y.Y.Y.Y.",
"p.w.d.h.C.Z.I.Z.>   o ( #.E     w E ! -X&X&X&X&X&X&X&X&X&X .D D     e #.$.;   # B.~.~.Q.Y.I.I.k.",
"d.d.d.N.Z.v.z.z.G G G $.#./ 0 0 [.OXOXF F F F F F F F F F | OXOXa 0 E #.$.Q H v z.z.b.U.I.I.Y.I.",
"d.m.h.m.Z.b.b i P.>X>X&.#.#.#.#.tXyX9X                    #XyXyX#.#.#.#.#.-X<X-XQ D ` I.I.I.I.I.",
"9.d.f.m.Z.l.D D %X>X>XK.%.&.#.$.tXyXuXL L x h l h h k e e OXyXyX#.#.&.%.%.-X>X*XQ D N I.I.I.I.Y.",
"i.s.6.f.N.l.b b H.-X&X&X&X%X#.#.tXyXyXyXyX3X^.^.^.^./.o.o.,XyXyX#.#.%.&X-X%X-X$XQ i ` k.I.U.Y.I.",
"i.i.6.h.m.a._ _  .....[ ' ! p U uXyXyXyXyX1XL.L.^.^./.K.K.2XyXyXi E Q ' [  ... .' _ l.Y.Y.Y.U.Y.",
"i.s.6.m.m.f.g.N.G D y O         9XyXyXyXyX,Xo.&./.^.^.^.^.3XyXyX          u b ! A.E.U.Y.Y.T.E.E.",
"6.2.9.d.h.f.g.g.R N H 6 2 2 3 3 7XqX9X+X@X| D ! c.x.x.x.x.4X0X0X3 3 2 2 2 H _ ` R.U.Y.Y.T.U.U.E.",
"2.2.1.a.s.s.f.h.d.d.t.}.'.{.|. X.X.X'.= = O O O $ $ $ $ $ R (.(. X X{.'.'.G.S.A.I.I.k.Y.Y.I.Y.I.",
"s.6.i.i.q.q.f.h.s.s.u.}._.|. X X X|.'.. & X           & = R /.(. X X|.'.|.u.R.T.N.I.g.k.I.I.I.N.",
"s.i.i.s.s.i.s.d.f.s.4.+         '.XXXXXXXXC         4 .XXXXXXXXX          e.R.A.I.g.k.k.k.g.N.Z.",
"s.s.s.s.d.d.f.h.h.f.4.@     & & {.XX.X{.{.C @ # # # 4 {. X XXXoX& & X   X >.R.A.I.k.k.I.k.g.N.T.",
"i.i.i.i.i.h.h.h.h.h.-.+   2 _._.|.|.).& & M v.v.r.v.:.* * Z |.|._._.C   X :.A.A.N.I.k.k.T.f.g.A.",
"a.i.i.i.i.h.m.h.f.h.<.@   3 |.|.|.|.).    n E.!.E.E.>.X   C |.|.|.|.Z   X >.N.N.N.g.g.N.N.f.g.N.",
"a.i.i.i.i.a.i.i.i.d.s.s.9.n         > T.W.W.!.!.Q.W.!.Y.I.g         s N.g.I.N.V.N.N.m.f.h.h.f.g.",
"1.1.1.1.i.i.1.i.6.i.s.f.d.*.+ @ $ $ < A.R.W.!.!.Q.E.E.I.N.M $ $ @ @ g T.N.N.N.N.V.m.h.h.f.g.f.g.",
"1.i.1.1.1.<.1.1.1.2.s.d.m.9.*.*.*.*.>.A.A.R.R.R.T.T.T.T.T.h.=.:.:.:.7.V.I.N.M.B.h.q.s.k.f.f.f.s.",
"i.-.i.=.1.<.1.i.2.2.i.p.d.s.h.m.g.g.A.A.A.A.A.T.T.T.T.T.T.k.g.A.I.Z.U.N.g.f.d.p.9.3.q.s.s.h.g.s.",
"i.=.1.1.2.1.1.i.i.i.2.i.s.s.d.h.g.g.N.A.N.N.I.N.T.k.T.T.k.k.g.s.N.N.m.g.g.w.9.6.3.3.3.q.2.s.s.s.",
"i.i.1.i.2.2.2.2.2.i.i.i.i.i.s.f.h.g.g.h.h.g.g.T.g.T.k.T.g.k.g.i.n.h.w.f.s.q.2.2.3.3.3.2.2.s.s.s."
};
