/* XPM */
static char *result[] = {
/* columns rows colors chars-per-pixel */
"48 48 216 2 ",
"   c #000000",
".  c #0B0B0B",
"X  c #080909",
"o  c #160A0A",
"O  c #0D1207",
"+  c #0E1308",
"@  c #080E11",
"#  c #191414",
"$  c #121A12",
"%  c #271817",
"&  c #351C1C",
"*  c #1A240E",
"=  c #1B2510",
"-  c #31241E",
";  c #2A3917",
":  c #282717",
">  c #1C1C3C",
",  c #192E36",
"<  c #3B2724",
"1  c #343434",
"2  c #333428",
"3  c #551D20",
"4  c #401E20",
"5  c #472726",
"6  c #5B2426",
"7  c #46342C",
"8  c #473B2A",
"9  c #563530",
"0  c #533323",
"q  c #6B2929",
"w  c #612124",
"e  c #7C2E31",
"r  c #693839",
"t  c #783C3D",
"y  c #6E2F2A",
"u  c #33451A",
"i  c #374C19",
"p  c #374B2B",
"a  c #40571F",
"s  c #455B26",
"d  c #554239",
"f  c #714C39",
"g  c #4C6628",
"h  c #5A7932",
"j  c #51702D",
"k  c #78692D",
"l  c #796F3B",
"z  c #2D2C57",
"x  c #383877",
"c  c #433E65",
"v  c #2D5152",
"b  c #2E5869",
"n  c #325766",
"m  c #3A697B",
"M  c #454545",
"N  c #515151",
"B  c #584652",
"V  c #794140",
"C  c #794643",
"Z  c #7A5846",
"A  c #665253",
"S  c #7D6442",
"D  c #7D6552",
"F  c #504C6D",
"G  c #787878",
"H  c #6D666E",
"J  c #5F6168",
"K  c #852E32",
"L  c #8A3135",
"P  c #823632",
"I  c #9F373C",
"U  c #A73A3F",
"Y  c #AC3C41",
"T  c #B13D42",
"R  c #894748",
"E  c #8C5551",
"W  c #945B54",
"Q  c #904F4A",
"!  c #B14E50",
"~  c #986358",
"^  c #8B6B54",
"/  c #A1685E",
"(  c #906A74",
")  c #AA6863",
"_  c #A97365",
"`  c #B77D6D",
"'  c #A47A7A",
"]  c #B16D60",
"[  c #C14248",
"{  c #C7514A",
"}  c #CB5E64",
"|  c #CD6568",
" . c #D06D73",
".. c #D16B4E",
"X. c #5F8031",
"o. c #6E9929",
"O. c #729E2D",
"+. c #6C923C",
"@. c #749F32",
"#. c #668937",
"$. c #75A22D",
"%. c #7AA62E",
"&. c #7BAA2E",
"*. c #77AA2C",
"=. c #76A332",
"-. c #7AA633",
";. c #76A932",
":. c #7CAB33",
">. c #74A63B",
",. c #7AA739",
"<. c #77AB3B",
"1. c #7CAD3B",
"2. c #7DB235",
"3. c #7DB23C",
"4. c #778741",
"5. c #6F9A40",
"6. c #7EAD43",
"7. c #77A644",
"8. c #7EB241",
"9. c #81AE35",
"0. c #81AD3B",
"q. c #83A739",
"w. c #82B236",
"e. c #84B33C",
"r. c #89B63E",
"t. c #86BA3D",
"y. c #89BB3E",
"u. c #89C03E",
"i. c #838546",
"p. c #879B47",
"a. c #84AF41",
"s. c #8AA849",
"d. c #84B443",
"f. c #89B643",
"g. c #85BA43",
"h. c #8BBC44",
"j. c #86B54A",
"k. c #89B64A",
"l. c #86B94A",
"z. c #8BBC4B",
"x. c #91BF4A",
"c. c #90BE47",
"v. c #8CBC51",
"b. c #BA8672",
"n. c #B38D72",
"m. c #EDB758",
"M. c #C68C77",
"N. c #CB927B",
"B. c #D29A7A",
"V. c #E18D79",
"C. c #D89A50",
"Z. c #8BC344",
"A. c #8DC44B",
"S. c #8FC94C",
"D. c #8BC745",
"F. c #92C54C",
"G. c #92C94D",
"H. c #90C047",
"J. c #8EC350",
"K. c #92C651",
"L. c #94CA52",
"P. c #99CB54",
"I. c #DBC051",
"U. c #FADA5C",
"Y. c #F1C359",
"T. c #3D758B",
"R. c #695D83",
"E. c #417488",
"W. c #7F7FA2",
"Q. c #5F5F8B",
"!. c #816780",
"~. c #9D7C86",
"^. c #A17B88",
"/. c #4F91AB",
"(. c #589AB4",
"). c #488AA4",
"_. c #629094",
"`. c #958E96",
"'. c #A89291",
"]. c #82AB9F",
"[. c #B4BF83",
"{. c #8F8BAA",
"}. c #B49CB7",
"|. c #B5B5B5",
" X c #ACACAC",
".X c #D39A82",
"XX c #DA9C85",
"oX c #D39785",
"OX c #DF9B9E",
"+X c #DFA48A",
"@X c #DAA087",
"#X c #CCA585",
"$X c #E2A88D",
"%X c #F2B98F",
"&X c #E5AD90",
"*X c #E9B595",
"=X c #C0A6A6",
"-X c #E4ABA5",
";X c #F7C196",
":X c #EDDD9E",
">X c #FACAA3",
",X c #FDEDAE",
"<X c #A9A9C5",
"1X c #B0B0D0",
"2X c #C5C5C5",
"3X c #CBCBCB",
"4X c #D5D4D4",
"5X c #DCDCDC",
"6X c #D5C4C4",
"7X c #EAEAEA",
"8X c #E2E2E2",
"9X c #F3EDED",
"0X c #FEFEFE",
"qX c gray96",
"wX c #FFFBEB",
"eX c #E9CBCC",
/* pixels */
"o.O.=.-.-.,.,.,.,.a.a.a.a.k.k.k.k.f.a.a.0.1.3.6.3.8.8.6.6.6.>.>.<.<.8.3.8.3.2.<.;.2.3.<.:.;.;.O.",
"o.O.$.:.:.-.-.,.,.q.a.a.a.k.k.k.k.j.a.d.j.8.8.8.8.d.8.8.6.6.>.>.3.8.d.8.3.3.3.2.;.2.3.2.:.;.;.*.",
"O.O.=.:.1.-.1.q.q.a.j.f.j.j.k.j.k.k.k.d.d.8.3.8.d.8.8.<.<.<.>.>.8.l.j.g.d.3.3.2.2.3.3.u.t.3.2.2.",
"O.$.$.q.:.,.0.0.r.f.j.j.k.k.j.d.j.k.k.j.l.8.8.8.8.8.8.8.<.<.<.<.8.l.l.8.8.3.3.3.u.u.3.Z.h.t.u.t.",
"=.-.=.:.-.,.1.f.e.j.f.d.l.j.8.8.l.j.l.j.j.g.8.g.d.g.z.g.8.<.8.8.3.g.l.l.8.g.8.3.u.u.Z.l.h.t.t.g.",
"=.=.@.-.=.-.1.e.0.3.j.j.j.j.v.A.j.8.j.l.l.l.d.d.g.A.F.z.g.8.g.g.g.g.g.A.S.A.A.A.D.D.K.J.Z.Z.Z.h.",
"$.-.-.-.,.,.1.0.e.d.j.k.v.8.l.S q q q q q q q q q q q q q q 9 q f l.J.L.L.K.A.F.L.P.P.L.G.A.Z.Z.",
"$.-.-.=.=.,.1.1.8.d.3.8.j.6.7.l q q q q q q q q q q q y q q q q Z 6.J.L.L.K.S.K.L.P.P.P.P.H.Z.D.",
"O.$.$.@.@.@.1.-.3.3.<.8.8.i = y T T T T T T T T T T T T T T T T K : * S.J.K.L.S.F.L.P.P.G.F.D.S.",
"o.O.@.=.$.$.<.<.1.1.8.d.l.:   w [ [ [ [ [ [ [ [ [ [ [ [ [ [ [ [ K o   F.A.K.K.K.F.G.L.L.L.G.S.G.",
"=.=.-.>.,.,.<.1.8.8.j.j.j.;   w [ [ [ [ [ [ [ [ [ [ [ [ [ [ [ [ K X   S.K.K.K.J.S.J.G.L.G.G.S.D.",
"-.-.,.,.,.1.e.d.d.j.j.l.v.;   w [ [ [ [ [ [ [ [ [ [ [ [ [ [ [ [ K o   J.J.z.A.z.A.A.A.G.G.G.G.G.",
"-.1.0.0.0.d.d.d.d.j.a.h g 0 3 L [ [ [ [ [ [ [ [ [ [ [ [ [ [ [ [ I 6 6 j h 8.J.J.A.D.A.J.G.L.L.G.",
"-.1.0.e.0.d.d.8.1.d.d.*   L [ [ [ [ [ [ [ [ [ [ [ [ [ ! [ [ [ [ [ [ [   @ 7.J.l.z.J.K.K.L.P.L.S.",
"e.0.f.f.f.d.g.d.8.g.d.*   L [ [ [ [ [ T L L L L L L L L Y [ [ [ [ [ [   + 7.K.J.J.J.K.S.L.L.G.P.",
"r.r.f.f.g.d.g.8.j.l.8.*   L [ [ [ T Y e o . . . . . . X 6 Y T [ [ [ [   + 7.J.J.J.S.K.S.G.L.P.G.",
"e.e.f.f.h.z.z.k.v.z.j.*   L [ [ [ e . # 1 1 1 1 1 1 # @ . . 6 [ [ [ [   + 7.A.A.A.A.J.A.G.P.G.F.",
"0.e.f.f.h.F.v.v.v.v.j.*   L [ [ [ K @ M |.3X2X2X2X3Xp . . . 6 [ [ [ [   . 7.A.J.J.J.K.S.F.G.F.D.",
"1.0.d.f.h.z.z.z.z.J.j.*   L [ [ [ K . N 4X7X7X7X7X7XN . o @ 3 [ [ [ [   O 7.H.K.J.J.K.S.A.D.D.A.",
"0.d.e.f.f.h.l.z.l.* : n.#XQ e ( }.H . N 4X7X7X4XN 1 `.2XH @ B }.^.t e #Xn.p = 5.L.K.S.S.A.F.D.Z.",
"0.0.f.e.e.g.l.z.v.  . #X>XE q ( 1XW.+ N 4X7X7X4X1 .  X7XG X F 1X^.t q >X*X:   +.S.L.K.A.A.A.A.Z.",
"e.0.1.1.d.h.z.z.v.  . b.*X9 o z Q.W.1X4XqX0X0XqX2X2X7XqX8X2X{.Q.c # o -X#X%   +.K.S.A.A.J.L.F.A.",
"r.0.e.1.3.g.z.v.G.  . b.+X<   > x W.0X0X0X0X0X0X0X0X0X0X0X0X<Xx z @   XXoX#   #.S.A.S.S.L.K.G.S.",
"q.0.:.<.d.g.z.A.J.p s Z E 7 & B H ~.<X<X<X<X<X<X<X<X<X<X<X<X{.G A < & D Z s s 7.A.S.A.L.P.L.K.S.",
"0.0.:.3.e.l.A.A.z.J.v.=   9 f ] XX' x x x x x x x x x x x x !.XXM.R V   + 6.P.K.D.G.G.P.L.L.L.G.",
"e.0.3.3.3.A.F.z.v.K.v.$   r E b.+X'.R.Q.z z R.R.R.R.x z F R.~.$XM.W E   O 4.s.x.G.D.S.G.L.L.S.S.",
"9.9.:.:.e.l.A.A.J.K.j.*   _ +X+X+X*X>Xn.#   >X>X>X>X7   ^ >X*X$X+X$X+X  X r V p.F.H.D.G.G.G.S.S.",
"0.0.3.e.t.Z.z.z.J.K.l.u * / N.#X+X&X*Xn.% # >X>X>X>Xd o ^ %X*X$XoXN.oX% % C E p.s.z.D.G.S.S.D.D.",
"0.e.e.r.l.Z.h.A.G.K.z.6.6.D R ` +X$X$Xb.C r >X>X>X>X~ r _ OX+X+XM.E R ! ! M..X~ R i.S.G.S.Z.Z.D.",
"0.0.f.g.l.Z.z.H.G.G.F.F.A.S t _ XXXXXXM.R C >X>X>X>X/ V _ @X@X@X` R f }  .XX+XW C i.A.S.D.Z.Z.Z.",
"e.e.f.g.h.Z.F.F.F.F.F.F.J.u o % < 9 E ) M.M.&X&X&X&XoXN.] E d < & # o } | XX+XW V i.D.Z.Z.Z.D.D.",
"0.e.e.y.A.H.F.G.F.F.P.K.P.;       % V W oX+X+X+X+X+XXX$X_ f 5         } | XX+XW V i.Z.Z.Z.Z.D.D.",
"9.w.:.r.h.y.Z.Z.Z.H.z.s ; t R L R _ 6X'.d 7 7 7 7 7 7 7 - % A  X'.Q R 4 5 5 7 4.p.a.D.Z.Z.D.D.Z.",
"w.9.:.e.r.y.h.h.Z.Z.e.*   Q } | } OX0X X#                   G 0XeX .}         +.G.z.D.D.D.G.G.F.",
"w.w.9.f.h.r.h.y.h.Z.e.8 & ] V.V.V.oX|.'.!.G k k k k y 6 A G |.0XeX) ! p g s s s.P.A.D.S.D.G.G.F.",
"&.&.<.e.e.t.r.y.y.y.e.Z f B.;X;X;XN.t ' qX0XU.U.U.U...! OX0X0X0X6XE C G.P.P.P.K.K.F.D.G.G.D.F.F.",
"&.&.&.:.e.t.t.y.y.y.r.S P N.%X%X%XM.t ' 9X0Xm.m.U.U.C...-X0X8X2X`.f 9 H.L.P.P.F.Z.Z.Z.D.D.D.D.H.",
"w.9.%.9.:.2.t.t.w.w.q.f C M.$X$X$X` V ' 9X0X[ { m.U.U.U.,X0X`.        S.G.G.G.c.h.Z.t.u.Z.y.A.H.",
"9.9.9.w.w.9.e.r.w.w.w.S Z b.oXoXXX] r ( 3X8XY ! C.I.I.I.:XwX`.$ @     K.K.F.H.c.Z.u.u.u.u.y.h.h.",
"w.w.w.r.e.w.e.r.y.y.r.h.h.S t t f 5                     k U.[.(.m @   S.A.F.G.F.Z.u.u.Z.u.u.h.c.",
"9.r.w.9.9.r.r.r.r.y.w.r.h.Z f t f 6                     l U.B.(.m @   A.A.H.c.c.h.u.u.Z.H.y.y.c.",
"q.q.9.9.9.r.f.r.w.r.w.t.r.a.p.p.p.p.+.g O     . b m E.T._.(.#., p #.+.F.Z.c.h.c.h.h.y.y.y.t.y.h.",
"9.9.9.%.9.q.9.9.9.w.w.w.e.f.c.h.x.x.x.#.O     @ T.).(.(.(.(.n   ; a.Z.h.l.Z.h.k.h.h.f.r.e.t.y.y.",
"9.O.%.9.%.9.%.9.9.9.w.t.e.r.f.f.h.c.c.a.h h h h v , T././.(.n   ; 6.A.h.Z.h.h.z.h.f.f.r.y.r.y.y.",
"%.9.9.o.%.$.%.%.&.&.9.e.f.r.e.h.y.y.c.c.c.x.F.f.*   m )./.).v   u 1.z.h.h.g.g.f.f.2.w.t.y.y.t.w.",
"9.o.o.9.%.$.%.9.&.&.9.9.r.0.r.y.y.y.c.h.c.c.x.r.i u v b n n v ; g d.z.Z.g.t.t.9.:.&.2.2.w.w.w.t.",
"o.9.9.o.%.*.%.&.:.9.&.9.w.9.e.y.r.y.c.c.h.h.H.H.u.D.;   X   a 9.h.l.h.g.t.t.:.:.-.*.*.2.&.w.w.w.",
"9.9.9.9.&.9.&.9.&.9.9.9.9.w.r.w.r.y.r.r.h.g.y.u.H.D.i * * * a 9.r.e.e.t.2.2.:.:.*.*.*.&.2.w.w.w."
};
