/* XPM */
static char *result[] = {
/* columns rows colors chars-per-pixel */
"48 48 217 2 ",
"   c #000100",
".  c #0B0B0B",
"X  c #0A0606",
"o  c #1B0C0B",
"O  c #0D1107",
"+  c #0E1308",
"@  c #12150B",
"#  c #080E11",
"$  c #181515",
"%  c #0C161A",
"&  c #271816",
"*  c #2C1415",
"=  c #1B2610",
"-  c #1B250F",
";  c #27220F",
":  c #243214",
">  c #2A3A16",
",  c #283717",
"<  c #2F3217",
"1  c #1B333D",
"2  c #3B2622",
"3  c #3B3223",
"4  c #2E2E30",
"5  c #1C1A31",
"6  c #491A1C",
"7  c #4C2828",
"8  c #5B2426",
"9  c #4E332C",
"0  c #543E34",
"q  c #5F3435",
"w  c #4D3930",
"e  c #682828",
"r  c #612124",
"t  c #732B2D",
"y  c #673837",
"u  c #7C3939",
"i  c #702E31",
"p  c #37491E",
"a  c #314A31",
"s  c #594C34",
"d  c #455326",
"f  c #6D5A2F",
"g  c #6C5C31",
"h  c #725D33",
"j  c #6B4438",
"k  c #496428",
"l  c #516A2C",
"z  c #56752D",
"x  c #597A32",
"c  c #567730",
"v  c #586A31",
"b  c #7C6C2E",
"n  c #1E3843",
"m  c #213C46",
"M  c #282751",
"N  c #383878",
"B  c #2E4C4C",
"V  c #335866",
"C  c #36687B",
"Z  c #386172",
"A  c #565757",
"S  c #444444",
"D  c #784040",
"F  c #794C43",
"G  c #775846",
"H  c #6E5948",
"J  c #4D6E51",
"K  c #7E6E55",
"L  c #4C4B70",
"P  c #6D6D6D",
"I  c #6F6878",
"U  c #8A3234",
"Y  c #8D3B3D",
"T  c #812F32",
"R  c #A13A3D",
"E  c #AE3C41",
"W  c #B63F44",
"Q  c #844847",
"!  c #915953",
"~  c #88554E",
"^  c #BC4146",
"/  c #B45358",
"(  c #837447",
")  c #9D655B",
"_  c #8E7052",
"`  c #AC705C",
"'  c #875A65",
"]  c #B95C68",
"[  c #AC5E60",
"{  c #916B69",
"}  c #BD6568",
"|  c #AA7566",
" . c #C14248",
".. c #C8565B",
"X. c #CB5E64",
"o. c #CD666B",
"O. c #C7776C",
"+. c #6E9929",
"@. c #729E2D",
"#. c #6C9333",
"$. c #6D963C",
"%. c #729C38",
"&. c #698839",
"*. c #75A22D",
"=. c #7AA62E",
"-. c #7BAA2E",
";. c #77AA2C",
":. c #76A332",
">. c #7AA633",
",. c #7CAB33",
"<. c #74A53A",
"1. c #7CAC3B",
"2. c #77A937",
"3. c #7DB235",
"4. c #7DB23C",
"5. c #7EAE43",
"6. c #79A447",
"7. c #7EB141",
"8. c #7FB553",
"9. c #6E9C62",
"0. c #81AE35",
"q. c #81AD3B",
"w. c #83A739",
"e. c #82B236",
"r. c #84B33C",
"t. c #89B63E",
"y. c #85BA3C",
"u. c #89BB3E",
"i. c #80913F",
"p. c #89C03E",
"a. c #848944",
"s. c #809A42",
"d. c #A1805D",
"f. c #83AE42",
"g. c #88A648",
"h. c #84B443",
"j. c #89B643",
"k. c #86BB42",
"l. c #8ABC44",
"z. c #86B549",
"x. c #89B64A",
"c. c #87BB4A",
"v. c #8CBD4B",
"b. c #90BD4A",
"n. c #8DBE51",
"m. c #BC8773",
"M. c #B28A68",
"N. c #C58C78",
"B. c #CB947D",
"V. c #C59177",
"C. c #D58976",
"Z. c #D9A87E",
"A. c #E28F7A",
"S. c #8CC344",
"D. c #8EC44B",
"F. c #8FC94C",
"G. c #8BC745",
"H. c #91C447",
"J. c #91C54C",
"K. c #92C94D",
"L. c #8EC351",
"P. c #92C652",
"I. c #95CA52",
"U. c #9ACB54",
"Y. c #E3C754",
"T. c #F9D95C",
"R. c #F1CA5E",
"E. c #EBD76F",
"W. c #FBE176",
"Q. c #3D758B",
"!. c #494984",
"~. c #457A8C",
"^. c #7B6B87",
"/. c #7E788D",
"(. c #7D7DA7",
"). c #7777A2",
"_. c #8F778A",
"`. c #A57F85",
"'. c #837DA2",
"]. c #4B869A",
"[. c #498AA4",
"{. c #5395AF",
"}. c #599BB5",
"|. c #508EA6",
" X c #639BB0",
".X c #878787",
"XX c #9D9D9D",
"oX c #8CAB92",
"OX c gray71",
"+X c #B3A3B2",
"@X c #AA8E9D",
"#X c #D49A82",
"$X c #D39A85",
"%X c #DC9195",
"&X c #C78F8C",
"*X c #E09A82",
"=X c #DFA48A",
"-X c #D5AC8B",
";X c #E3A88A",
":X c #E6AE91",
">X c #EBB491",
",X c #CEB0B1",
"<X c #F8C090",
"1X c #F5C29F",
"2X c #F9C9A2",
"3X c #FCEBAE",
"4X c #ADADCC",
"5X c #C8C9CC",
"6X c #D5D5D7",
"7X c #F2DFE0",
"8X c #E3E3E3",
"9X c #EAEAEA",
"0X c #F5E1E2",
"qX c #FFFFFF",
"wX c #F8F3F1",
"eX c #F1F0F3",
"rX c #E1E0E1",
/* pixels */
"+.@.:.>.>.>.2.1.1.f.f.f.f.j.x.x.x.x.f.q.q.f.1.4.5.7.7.8.5.1.<.<.<.1.7.4.7.4.4.2.;.3.3.<.2.;.2.@.",
"+.@.*.,.,.>.:.2.<.w.f.f.f.x.x.z.x.j.f.h.h.7.7.7.7.h.7.7.5.2.<.<.4.7.h.7.4.4.3.3.3.3.4.4.3.;.;.2.",
"@.@.:.,.w.2.w.1.q.f.j.h.h.x.x.z.x.x.x.z.h.7.7.h.7.7.7.1.2.1.<.<.7.c.c.7.h.7.4.3.3.3.k.4.r.e.3.3.",
"@.*.*.w.2.>.q.f.j.j.x.z.x.x.z.z.h h h h h h g h h h g g g g g g h 6.k.7.7.4.4.4.y.y.k.G.l.k.p.y.",
":.:.:.w.,.>.1.j.r.h.x.h.x.z.h.z.e e e e e e e e e e e e e e e e e K y.c.k.k.7.4.p.p.S.c.k.k.y.k.",
":.:.:.:.:.2.q.q.4.r.h.x.x.5.c z U U U U U U U U U U U U U U U Y Y g z %.D.D.G.D.G.F.P.F.D.S.S.l.",
"*.>.2.>.>.1.1.q.4.h.h.x.x.$.O    . . . . . . . . . . . . . .^ X.X.7   k I.L.D.K.I.U.U.I.J.S.S.S.",
"*.-.>.:.:.<.1.1.h.7.7.h.z.$.O    . . . . . . . . . . . . .W  ...X.7   k I.I.K.P.I.I.U.I.I.J.S.S.",
"@.@.:.@.@.%.1.2.1.1.1.7.h.%..    . . . . . . . . . . . . . . . . .6   k L.I.P.D.P.I.I.I.K.K.H.G.",
"+.@.%.:.:.@.2.1.4.1.7.z.x.%.O    . . . . . . . . . . . . . . . . .6   k v.P.P.P.D.K.U.I.I.K.K.F.",
":.@.>.2.2.2.2.4.7.7.z.c O * R R  . . . . . . . . . . . . . . . . .W E 8 + p L.L.D.P.P.I.K.I.K.G.",
"1.:.2.1.1.1.r.7.z.z.7.z   o W  . . . . . .W ^ ^  .W  .W  . . . . . . .r   , D.v.D.D.D.F.K.K.K.F.",
">.w.q.q.q.h.h.h.h.z.c.z   o W  . . . . .U 8 8 8 8 8 8 8 8  . . . . . .r   , L.L.G.S.D.L.K.I.I.K.",
",.1.q.r.q.h.h.h.5.h.D.c   o W  . . .T t * . . . . . . . . t t E  . . .r   , L.c.L.L.F.P.I.U.I.K.",
"r.q.j.j.h.h.h.7.7.h.S.c   o W  . .W * . S P P P P P A $ X . $ U  . . .r   > I.L.L.L.P.I.I.I.U.I.",
"r.j.j.j.l.h.h.k.h.c.c.c   o R  . .W * . .X9X9X9X9X9X5X$   . o U  . .^ r   , L.L.L.L.F.F.K.K.I.K.",
"r.t.j.l.x.l.v.x.n.5.#.v 3 9 R R ] / * # .XeX9X9X6XOXXXS a . & Q X.^ E u 3 d $.%.D.D.L.D.K.K.K.J.",
"q.q.t.h.l.v.n.n.n.x @ s Z.V.T t 4X+X4 . .X9X9X9XOX& 4 OX6X. $ ^.4X' i ) Z.| @ > c.F.P.F.K.J.K.H.",
"q.q.h.j.l.b.v.n.v.l   j <XZ.u e 4X4X4 X .X8X9X8XXX  4 6X9X. 5 /.4X' e | >XM.  = c.F.P.F.F.G.D.F.",
"q.r.t.h.h.l.c.v.c.l   0 ;XV.& X !.!.5XrXeXqXqXqXwX8XrXqXqX8X6X).!.5 X F ;X|   = c.I.P.D.D.F.S.S.",
"h.r.r.r.h.k.k.c.c.k   0 =Xm.@   N !.rXqXqXqXqXqXqXqXqXqXqXqXeX).N 5   H ;X{   = L.F.F.D.L.F.S.S.",
"q.q.q.1.h.k.D.v.n.6.x l w w 7 7 `.`.'.(.(.(.(.).(.(.).).).(..X_.`.F 7 9 w s &.$.L.D.D.L.J.P.K.D.",
"r.q.4.1.4.h.n.n.P.n.c.c   o y j %X$X!.N N N N N N N N N N N !.`.;X) D 2   > F.L.D.D.D.F.I.I.P.P.",
"w.q.1.1.k.h.c.n.n.L.n.x   $ ! ) =X=X_.^.L M L ^.^.^.^.M M ^._.&X;X| ) 9   > F.F.F.F.F.P.U.P.K.D.",
"w.r.1.3.r.l.D.v.n.L.L.c   & B.=X=X;X1X2XH   K 2X2X2X-X$   2X2X:X=X=X=XH   , F.F.G.K.K.I.I.I.P.F.",
"r.q.3.4.4.D.L.D.L.L.P.&.= 3 m.B.=X:X>X2XG O ' 2X2X2X-X2 o 1X1X:X=X$XB.G = p I.P.K.G.F.K.I.I.K.F.",
"w.,.0.1.4.S.D.L.L.P.L.D.L.g.F D =X=X$X;X` D m.2X2X2X:XF D =X=X=X=X) u a.K.I.I.I.J.J.D.K.K.I.F.F.",
"r.1.4.e.k.l.v.v.L.P.D.h.6.$.Q Q N.N.#X$X| Q m.2X2X2X:X! F #X#XV.N.) Q ( 7.h.I.P.J.J.G.K.K.G.G.G.",
"q.1.r.t.h.v.l.S.J.U.b.&.: 3 / / 2 3 F ! | &X$X:X:X:X=XB.N.! ~ q 2 Q / j : d K.I.P.P.J.P.L.S.G.G.",
"r.r.r.l.v.S.v.D.J.J.J.x   o / X.  X y D | =X;X;X=X=X=X=X;XD y &   u X.y   , K.K.P.D.D.F.G.G.S.G.",
"h.r.t.l.v.S.J.J.U.g.( ( _ | o.X.Y Q +X,X{ s 0 0 0 0 0 0 s ,X,X' Y / o.` _ _ ( ( v.D.S.S.G.G.S.G.",
"q.r.r.l.l.H.J.J.U.a.j ` <X>Xo.X.X.o.0XqXP                 qXwX%XX.X.X.A.<XZ.j G v.D.S.S.S.S.S.G.",
"0.0.,.y.l.u.S.S.S.a.D ` >X;XC.O.X.o.0XqXOX.X( b b b b j q qXwX%X..O.O.*X>XC.u G S.G.G.G.S.G.D.G.",
"0.e.,.t.y.u.l.l.H.a.j ) =X=X;X:XX.o.0XqXqXqX3XT.T.T.E.} } qXwX%XX.A.;X:X;XN.j ~ b.S.G.G.G.K.K.D.",
"e.e.1.t.l.t.H.u.l.i.j ` #X#X#XB./ } 0XqXqXqX3XR.T.T.R.C.O.qXwX&X] O.#X#X#XN.h ~ P.J.D.F.G.K.K.J.",
",.-.>.r.t.r.y.u.y.y.H.a.D y X     $ 5XqXqXqX,Xo.m.T.T.T.T.qX8XA       6 j ~ U.U.P.J.G.H.K.G.J.J.",
",.-.-.0.r.e.y.u.y.y.t.%.F y $ # % $ 5XeX9X8X&X[ ` Y.Y.Y.Y.wX7XA # # % 4 F ( U.J.S.G.p.G.H.G.S.H.",
"e.,.=.0.1.3.r.y.e.e.r.t.g.6.~.Q.~.[. X XZ 4 5 & ; ; ; ; ; W.W. X].~.Q.9.x.b.J.H.l.S.u.p.p.S.l.S.",
"e.0.0.e.e.0.e.t.t.e.y.u.c.8.].[.}.}.[.[.a                 T.T.oX}.|.[.9.P.J.J.b.l.p.p.p.p.y.l.v.",
"0.e.e.t.e.r.r.t.y.y.y.l.v.6.a 1 m m ].{.~.Z 1       # V Z oXoXJ n n n J J.J.b.J.S.p.G.p.p.u.l.J.",
"w.t.0.0.e.t.t.l.t.u.e.u.l.%.+     . ~.}.}.}.V       % |.}.}.].1       d S.H.J.b.b.p.p.S.S.u.u.J.",
"0.0.0.0.0.w.l.t.r.t.e.y.y.%.O   1 m ].{.~.Z B d p p p Z Z {.|.V 1 %   k l.b.l.j.l.u.u.u.u.r.y.l.",
"w.=.0.0.0.0.w.0.0.e.e.e.e.%.O   [.[.[.[.m   k U.U.U.f.+   [.[.[.[.1   k S.S.l.x.l.j.t.j.u.t.y.u.",
"0.=.=.-.-.w.=.0.0.0.e.r.r.%.> : C C C C B : x U.K.K.h.> : C C C Q.a : x l.l.l.v.b.j.t.u.t.y.t.u.",
"@.=.0.@.=.*.=.-.-.-.0.r.j.j.u.t.        l J.J.H.J.H.J.H.p.        z D.l.l.y.l.l.l.3.e.y.y.y.y.u.",
"0.=.0.@.=.=.=.-.-.-.0.0.r.q.t.u.    X X l b.b.H.H.H.H.H.H.X X X   z J.l.S.y.r.q.1.-.3.e.e.e.y.e.",
"0.=.=.=.=.=.=.0.0.0.-.0.e.e.r.u.#.#.%.#.q.l.H.l.H.p.H.H.p.%.+.+.#.1.l.y.y.4.1.>.-.;.;.-.-.e.e.e.",
"=.=.=.0.-.-.-.-.-.0.0.0.0.0.e.t.t.t.l.t.u.u.u.H.p.H.p.p.u.u.e.0.h.t.r.r.e.3.-.-.;.;.;.-.3.0.e.e."
};
