/* XPM */
static char *result[] = {
/* columns rows colors chars-per-pixel */
"49 49 82 1 ",
"  c #679A24",
". c #6F9D2C",
"X c #739D2F",
"o c #729D33",
"O c #74A426",
"+ c #74A42C",
"@ c #7AA62E",
"# c #75A92D",
"$ c #7BAB2D",
"% c #7DB02E",
"& c #6FA237",
"* c #75A433",
"= c #7AA633",
"- c #75AA33",
"; c #7CAC33",
": c #72A63A",
"> c #7AA639",
", c #76AB3B",
"< c #7CAD3B",
"1 c #7DB334",
"2 c #77B139",
"3 c #7DB23B",
"4 c #7EB839",
"5 c #7EAF43",
"6 c #7EB242",
"7 c #7FBA43",
"8 c #80A92F",
"9 c #81B32F",
"0 c #81AD34",
"q c #81A23B",
"w c #82AE3C",
"e c #88AF3C",
"r c #82B435",
"t c #88B432",
"y c #80B837",
"u c #83B43C",
"i c #8AB63C",
"p c #85BB3C",
"a c #89BC3D",
"s c #86C13D",
"d c #8BC13E",
"f c #81AE42",
"g c #83B444",
"h c #89B543",
"j c #85BB44",
"k c #8BBC44",
"l c #84B549",
"z c #8AB64B",
"x c #86BB4A",
"c c #8BBC4C",
"v c #91BD47",
"b c #90B64A",
"n c #91BD4A",
"m c #8BBD52",
"M c #8EBF5C",
"N c #91BE52",
"B c #86C144",
"V c #8BC245",
"C c #8CC845",
"Z c #87C24A",
"A c #8CC34B",
"S c #8EC94C",
"D c #91C446",
"F c #92C54C",
"G c #9AC74F",
"H c #92CA4D",
"J c #98CC4F",
"K c #8DC352",
"L c #8EC952",
"P c #8FC858",
"I c #92C553",
"U c #99C251",
"Y c #93CA53",
"T c #9ACC55",
"R c #93C559",
"E c #95CA5A",
"W c #9ACD5A",
"Q c #98D155",
"! c #9AD15C",
"~ c #A1CC58",
"^ c #A4D15D",
"/ c #9FD064",
/* pixels */
"=;*<=>>gwfzhfbblwww<355g5lg&&,:>53g>3;#-23=-++.- ",
"=;+**>>>gfhzzzllfzz5g<g6566:&:<5zg3322113i--+-#1#",
"<0<>q>whhlllclzzlgg67665,,:3&:6ll37g2214ukuyy1;y;",
"=0==wezzhfmzffmzzgl636<663:,,,6Az7<u334pppcapa1p1",
"=;==whrzxlzffxl6ljgjgjjjAx6,6g<jklxx34BpVjijVpp%1",
"X**=gr<glzmgmxl5glxz57jFTZ7,jlgjjZZAAVCFFFVkpVpu$",
"<<:<w<uzzmzfmmmzlKzcxjjjkj6LAmZAAL!FAYTWEFGFVsFa-",
"o+*><<g<<gczfmfzAxjlcA7xIg7BYIEEYYIRAH~TTGTFVsFFp",
"ooXo3=:,<66gll5mcxlzIcAZjcAAYAKFYZKWIAYFTSQCVFFFp",
"o=X=-<<<ggzzmm5mKFZlKKZSKAcAAKKZYFnIKLYATYTHCJCFp",
"<=+=<<g5lxmKRIRRIKYAxZKLYKcZLKKLAAEnIAHALYHYFACVd",
">><<ggxfllmKmIRmKREIKcAjjZIIKZAKAKIFAcAAVAFYFCkVV",
"fw<ggglhgKcIREEIAEAIYZLKjZYRmKKcIYZAAAAZAVIJJCAVV",
"z;wjgg<ccKnmKRmKlZccKBLAYYKKxZLYWTIRZlAYAEHTQDFjd",
"hh<ug<<xcImIcmREIIAYKAKAYEERELLEWE!EELcZAYQEYTHVp",
"hkcgj6xAjKKIRxIEAZAZYEIRIYKKZKKKLIEZRIxSIHCJTHFkS",
"hckhllKKlllMmIEEIEIKEEELIImmmZKPEYK7KLxAICFYYVDkH",
"hgkINmKzxmzmNIcRRYE!LLLcYKLmKZPPPK7ZAKLSUHFJFCAFH",
"ukkcNzcKRlm7KEIREYIEPYLPKKKLKKLLLKKBZKYLAUVCVDFVd",
"ghkkclKmmx7mNEKREWEELLLPZAxKPZKjAPZYSLYASAACSVBjp",
"ww3jclmlxj7KP/MKLEKBxBSZ77677xKLAAKSWLSTTLAABVjBB",
"rfgzkcIgj3mMmRmREKZKASZZZx67Zx7BBZWA!WYCAAIFFVcFV",
";<gkKNKK7mmxmmEELmEASZBBZZm67ZZKZZLYYISZSFnTYACxa",
"#<jjccKKMREKKxPPERRIZLLKKLLZxZLPHY!AAAHFYCWYFICjj",
"-<kjxcxcKKmmzjxKEW!!ZSZLKLLLAALLSYKSYZACYHTHAHVSa",
"y3jcIAcIRZKABZxKKLELZSSAAIAKEEELQYYSHHFVZQQYHFHSH",
"<<uAAAKEKKZjjZmZZEYSCSYYKKIELWYLYHHYTTAFCCJHSCABV",
"r3jVccKEccKxxKRKREPYASjVYSWYLSYSHSSSHIYCjFHVHYBBd",
"3ukVkFRAkKKxKzRIEWEWYSBASPZAZYHCTYCBCCITYYHVsCssp",
"unKkkFFFKAxZxRmNRREWSYLBBQYLYCSBHWTSKEnAkYFBsBssB",
"jkFkFFUFFCYKPNRcKmLYLQAjZW!QLBBBZFHSAZAcVVVsVSBsp",
"ukkTHYCaTFTAmNKZIAAHYAHVYQEYVSZCAACCSSAIVBCsCdVVs",
"@VkVVkVDUFIIKIkAVZYAYVAAAZYQLZZSZCCSFHSVVBVVCkBBa",
"8kkakkdDAHKIAmxVVSCACZcCYVSSABSZZB7CJUAVVBDHHCppV",
"=hruVvHVjAUAASjVZAAZAHCSBCSASABKAYBSGTFACSCCFDdsa",
";zkrkappjAcjCBpBVZAZSYJAVSBSZZAAHSQQFWTHVCHHHEFVh",
";uuppatpppVBACZAcCKASHVjCBHYKSjVAVJTTAFVCVCCCaDkv",
"==1yaVtuypgjjVpkALFUCFVCHPIFZkVBAVFTYYkdsVAVVvaDa",
"1@r;uu8yakkjjpBVdCDHFHSDZHYVAAcjZLFADFakpypyknvvk",
"ruwruiuyuAAcakDCVHJHVSCSHYSVCIFVASYkGvVsDddadchik",
"tuuiiihuykbkpVVDFGTYDFVVYJCjKTnAFSkkFnVVsdVkabFhr",
"ee0hcivutukAkVaFTWFFHTFJJTFFRUUAFFVFkkikdVFupava9",
";0=0wi;uyy0hnvGFFUTTQJFFHCFFkIckAFVhkvknaagrkDaau",
"@$00==rrrpwgihvnvFVUT^GJQkpFxFUkkBkAkbbkakriiaiav",
"@@=X@@0@rgguukukkknRDTGFFVdDcVkkAFkkjchgrkapuaitt",
"O=+$;;O$0uhuiiyvFbknnVFVFHCDVkVkAkaehuu+=1tkyrtrt",
"OO@O@@;;w0u0iarvvkknGaVDdDDDpykVVkpp;w;#;1#ripy99",
"@@8$$$0r=00ruiuaFkkaavddDDddkuchyju1#;OO#1$1=ryti",
"0880@r888r0ra9tyu0itaaDdaDivaaier<3%$;#1#%10;;%%0"
};
