/* XPM */
static char *result[] = {
/* columns rows colors chars-per-pixel */
"49 49 197 2 ",
"   c #000000",
".  c #0C0101",
"X  c #0B0B0B",
"o  c #1E0101",
"O  c #110F0F",
"+  c #110101",
"@  c #0E110A",
"#  c #10120C",
"$  c #161C0D",
"%  c #1C1109",
"&  c #161616",
"*  c #1C1C1C",
"=  c #181616",
"-  c #2C0000",
";  c #3B0000",
":  c #331414",
">  c #27120A",
",  c #1F2614",
"<  c #2D381C",
"1  c #222222",
"2  c #2F2F2F",
"3  c #3C3C3C",
"4  c gray20",
"5  c #490000",
"6  c #430504",
"7  c #520000",
"8  c #5B0101",
"9  c #660000",
"0  c #740101",
"q  c #7D120A",
"w  c #681A10",
"e  c #493232",
"r  c #33431E",
"t  c #3C521F",
"y  c #3B4C25",
"u  c #394928",
"i  c #3E5324",
"p  c #3E5228",
"a  c #425625",
"s  c #425A26",
"d  c #415529",
"f  c #445A29",
"g  c #4A5B2E",
"h  c #445330",
"j  c #4B5A37",
"k  c #785728",
"l  c #695127",
"z  c #4B642B",
"x  c #4E692F",
"c  c #4C6432",
"v  c #526C31",
"b  c #506732",
"n  c #5B7B33",
"m  c #577533",
"M  c #516A2B",
"N  c #796330",
"B  c #434343",
"V  c #4B4B4B",
"C  c #50514E",
"Z  c #535353",
"A  c #5C5B5B",
"S  c #694848",
"D  c #625B5B",
"F  c #5C6452",
"G  c #66685F",
"H  c #636262",
"J  c #6A6B6A",
"K  c #676965",
"L  c #737373",
"P  c #7A7A7A",
"I  c #777876",
"U  c #737B69",
"Y  c #940000",
"T  c #A90000",
"R  c #B50000",
"E  c #B4100A",
"W  c #AC381C",
"Q  c #C60000",
"!  c #D20000",
"~  c #FF0000",
"^  c #F51109",
"/  c #FB100C",
"(  c #D93F1E",
")  c #C1341A",
"_  c #EC2311",
"`  c #E33017",
"'  c #9C4023",
"]  c #9F5925",
"[  c #A45C2A",
"{  c #AC5A2B",
"}  c #AF4827",
"|  c #A5622D",
" . c #AB602E",
".. c #B17236",
"X. c #CA5C2B",
"o. c #D05428",
"O. c #CC612F",
"+. c #856060",
"@. c #AB6060",
"#. c #904D4D",
"$. c #6B9C28",
"%. c #739D2F",
"&. c #6E9D39",
"*. c #6C9439",
"=. c #729D33",
"-. c #719E3B",
";. c #7D9935",
":. c #658039",
">. c #74A42C",
",. c #7AA62E",
"<. c #75A92D",
"1. c #7BAB2D",
"2. c #74A426",
"3. c #7DB02E",
"4. c #6FA237",
"5. c #75A433",
"6. c #7AA633",
"7. c #76AA33",
"8. c #7CAC33",
"9. c #73A53B",
"0. c #7AA639",
"q. c #7CAC3B",
"w. c #77A93C",
"e. c #7DB334",
"r. c #7DB23B",
"t. c #7EB839",
"y. c #77B139",
"u. c #6D9342",
"i. c #799B47",
"p. c #7EAE43",
"a. c #76A145",
"s. c #7EB242",
"d. c #879F3A",
"f. c #98983B",
"g. c #A3863D",
"h. c #80A92F",
"j. c #81B32F",
"k. c #81AD34",
"l. c #82AE3C",
"z. c #86A63C",
"x. c #82B435",
"c. c #84B43C",
"v. c #8AB63C",
"b. c #85BB3C",
"n. c #89BC3D",
"m. c #84B635",
"M. c #86C03D",
"N. c #8BC13E",
"B. c #82AD44",
"V. c #84AE4A",
"C. c #93A442",
"Z. c #9DA849",
"A. c #84B443",
"S. c #89B543",
"D. c #86BB43",
"F. c #8BBC43",
"G. c #85B449",
"H. c #8AB54B",
"J. c #86BA4A",
"K. c #8BBC4B",
"L. c #94B64B",
"P. c #91BD4A",
"I. c #90BC47",
"U. c #8BBB51",
"Y. c #91BC53",
"T. c #86C143",
"R. c #8BC244",
"E. c #8DC846",
"W. c #8DC34B",
"Q. c #8EC94B",
"!. c #91C446",
"~. c #92C54C",
"^. c #92C94D",
"/. c #99C94F",
"(. c #8DC251",
"). c #93C552",
"_. c #94CB52",
"`. c #99CC55",
"'. c #9BCD59",
"]. c #95C859",
"[. c #98D154",
"{. c #A1CC58",
"}. c #818181",
"|. c #8C8C8C",
" X c #8C8585",
".X c #969695",
"XX c #9C9C9C",
"oX c #A3A3A3",
"OX c #ACACAC",
"+X c #B5B5B5",
"@X c #BBBBBB",
"#X c #CACACA",
"$X c #DBDBDB",
"%X c #D3D2D2",
"&X c gray93",
"*X c #F3F3F3",
"=X c #FEFEFE",
/* pixels */
"6.8.5.q.6.0.w.B.B.z.S.H.A.K.L.A.p.B.l.q.q.q.s.s.s.G.s.9.4.w.9.0.s.r.A.8.t.0.>.7.y.q.8.7.>.>.>.<.$.",
"6.8.>.5.5.0.0.z.A.A.S.H.K.H.B.G.A.G.H.p.A.r.G.A.p.s.s.w.4.9.w.s.H.s.s.y.e.y.e.t.r.S.>.7.>.7.>.y.<.",
"q.k.q.0.z.0.q.S.A.A.A.G.H.G.H.K.A.A.A.s.c.A.s.A.w.p.9.r.4.9.s.D.J.r.s.s.y.y.e.t.b.F.c.b.t.t.3.t.7.",
"6.k.6.6.l.S.S.H.H.B.U.J.s.V.J.K.K.H.C.d.d.-.&.-.4.&.*.%.;.0.s.(.W.s.s.r.r.r.t.b.t.b.K.b.b.b.e.b.e.",
"6.8.<.0.q.F.c.A.J.G.U.B.s.U.J.A.H.H.` ^ ^ % # # # # > E E W q.s.J.D.J.A.s.t.T.v.R.J.b.F.F.b.v.e.e.",
"%.5.5.0.c.l.q.c.H.G.H.A.U.J.s.q.A.H._ ~ ~ +         o R R W A.D.D.W.K.W.J.E.W.~.~.~.K.F.F.T.v.m.1.",
"8.0.6.q.B.q.c.H.H.U.H.B...O.X.{ [ [ q 0 0  X|.|.K H D 7 7 w | | | | ..g.W.^.'.'._.).~.^.T.M.^.n.1.",
"=.6.5.w.q.q.A.q.q.A.P.S.o.~ ~ Q R T o     *X=X*X@X+XXX    - R R R R T } W.^.{./.`./.{.~.T.N.~.~.b.",
"=.%.=.=.c.7.7.w.w.z.f.f.) ! ! T Y Y : * 1 #X%X#XXX.X}.= = : Y Y Y Y Y ' Z.C.L._.`._._.Q.R.^.~.Q.b.",
"=.6.%.6.0.y.q.w.J.X./ / 8 . . . . X }.XX.X= O & O X * L L A . . . . . 6 E E  .~.`._._.Q.~.^.R.Q.b.",
"q.0.>.5.q.q.s.p.A.o.~ ~ 5            XoXoXX         & P P D           ; R R { W._.^.^._.^.R.W.R.T.",
"0.0.q.l.A.A.J.A.G.k 9 9 S H H A H K .XoXoXK H A V V C P P J V V V V V e 5 5 l W.J.W.Q._.^.W.D.E.R.",
"q.l.q.A.A.A.A.H.A.d     L oXoXoXoXoXoXoXoXoXoXXX}.P P P P P P P P P P Z     p K.W.W.(./._.W.~.E.T.",
"H.8.c.A.A.A.w.Y.P.j X X L oXoXoXoXoXoXoXoXoXoXXX}.P P P P P P P P P P Z   X h _.)._._.[.[.!.~.v.M.",
"S.F.q.c.A.s.] R R @.oXoXoXoXoXoXoXoXoXoXoXoXoXoXoXoXXXP P P P P P P P P P P #.R R  .`._._.[.^.T.n.",
"S.F.K.A.D.s.| R R @.oXoXoXoXoXoXoXoXoXoXoXoXoXoXoXoXXXP P P P P P P P P P P #.R R [ ^.^.`.^.~.F.^.",
"H.K.H.S.A.A.N 8 8 +.oXoXoXoXoXoXoXoXoXoXoXoXoXoXoXoXXXP P P P P P P P P P P S 8 8 k ^._._.W.R.F.^.",
"v.c.F.~.].U.c     A oXoXoXoXoXoXoXoXoXoXoXoXoXoXoXoXXXP P P P P P P P P P P V     c ~.^.~.E.W.~.^.",
"A.R.R.K.Y.H.c     H oXoXoXoXoXoXoXoXoXoXoXoXoXoXXXXXXXP P P P P P P P P P P V     f !.E.F.!.W.R.F.",
"A.F.H.F.H.J.c     H oXoXoXoXoXoXoXoXoXoXoXoXoXoX}.P P P P P P P P P P P P P V     d E.~.Q.Q.T.T.b.",
"k.q.r.D.K.G.c     F oXoXoXoXoXoXoXoXoXoXoXoXoXXXP P P P P P P P P P P P P P V     g (.W.T.T.D.T.T.",
"c.p.A.H.K.K.i.m n C B B }.oXoXoXoXoX|.|.|.|.|. XP P P P P P P P P P P H 4 4 j n n a.).~._.R.K.W.E.",
"8.q.c.K.K.).(.(.J.p     L oXoXoXoXoX}.P P P P P P P P P P P P P P P P Z     p W.Q.Q.P.'._.W.W.F.v.",
"7.q.D.D.(.W.(.W.(.c $ , J .X|.|.|.|.P P P P P P P P P P P L J J J J J C $ $ z ~._.W._._.W.).Q.D.D.",
"<.r.H.D.J.W.J.W.(.U.G.G.u O O X X & J P P P P P P P P P P H X X X X   u (.J.W.E._._._._.W._.T.E.T.",
"c.y.D.K.(.^.K.(.(.(.(.(.u           H P P P P P P P P P P H           y Q._.~.F.Q._.[._.Q.Q._.W.Q.",
"q.q.c.W.W.(.(.].U.u.x z U }.}.*     4 3 3 3 3 3 3 3 3 3 3 2     * A A F m v u.~.R.R.^.[.Q.Q.W.W.T.",
"c.e.D.T.W.W.(.].W.d     OX=X=X4                                 3 OX+XP     d Q.T.~.W.E.Q._.T.T.N.",
"q.c.F.R.J.K._.W.D.f     +X=X=X3                                 3 OX+XP     p [._._.^.E.M.E.M.M.b.",
"b.~.U.R.F.~.v X # .X*X*XZ X X                                     X X 3 OXOXL @ @ x ~.D.M.T.T.M.E.",
"A.F.~.H.~.~.b     XX=X=XZ                                             3 +X+XL     f E.T.E.E.E.b.b.",
"v.F.R._.~.`.z     }.$X$XB                                             3 +X+XL     p E.b.E.T.F.T.M.",
"1.F.R.F.R.F.z     J +X+X3                                             3 +X+XL     s T.E.E.D.T.T.n.",
"8.n.F.F.F.F.M @ # J OXOX3 X &                                     X X 3 OXOXL X @ z !.^.~.Q.b.n.!.",
"6.v.e.n.F.!.^.R.D.a     OX=X=X4                                 3 OX+XP     d W.R.Q.W.E.!.~.M.M.b.",
"8.K.A.c.F.M.b.v.T.a     OX=X=X3                                 3 OX+XP     d ^.E.E.^.^.^._.~.Q.S.",
"8.c.b.b.x.n.m.b.b.i     .X$X$X.X}.}.}.}.}.D A A A A A A A A A A P +X+XP     d E.!.E.Q.Q.E.F.!.F.I.",
"6.0.x.e.F.R.m.c.x.i     P +X+X*X=X=X=X=X=X+X+X+X+X+X+X+X+X+X+X+X+X+X+XP     y M.M.T.R.n.R.I.n.!.v.",
"8.8.x.8.c.v.1.c.b.z X @ I OXoX$X&X&X*X=X=X+X+X+X+X+X+X+X+X+XOXoXoXOXoXI @ @ s R.b.m.M.b.F.~.S.P.n.",
"m.x.l.x.x.c.b.x.b.A.B.p.u = = 1 * 2 oX@X@X+X+X+X+X+X+X+X+X|.& & & = = h H.B.c.b.E.N.n.n.M.P.S.v.I.",
"c.v.c.v.v.v.S.c.x.F.F.F.r         X .X+X+X+X+X+X+X+X+X+X+X|.          h ~.P.!.M.M.E.F.F.n.I.~.S.m.",
"k.l.k.v.I.S.I.b.x.x.H.W.n a a f f j K J K J J J J J J J J K g a f f f n F.F.F.F.N.M.~.x.n.n.F.v.j.",
"k.k.h.l.l.S.1.c.b.x.8.S.~.n./.~.~.).,                     < K.K.~.~.R.S.F.F.S.P.n.n.D.c.n.!.F.n.v.",
",.1.6.k.,.6.k.m.x.D.l.S.v.F.L.P.~.P.< $ $ $ $ $ $ $ # $ $ y ).D.F.T.n.Q.H.L.I.H.F.S.c.c.n.n.v.n.n.",
",.6.,.%.,.,.8.1.x.A.A.c.v.S.b.F.F.I.G.V.B.V.B.G.B.B.q.B.p.B.K.F.W.~.F.F.A.K.F.b.c.F.n.b.c.F.v.m.v.",
"2.h.>.,.k.8.>.1.8.c.S.c.v.S.x.I.P.P.F.P.L.!.~.R.~.^.E.!.R.F.R.F.K.R.n.c.S.c.c.5.7.x.m.n.x.x.m.m.m.",
">.2.,.2.,.,.8.8.l.k.b.k.b.F.x.F.F.K.F.!.~.I.!.!.R.!.!.!.n.b.F.K.W.T.F.c.8.l.8.<.1.e.1.x.v.x.m.j.j.",
",.,.1.1.1.1.k.k.8.k.k.k.c.v.v.v.P.I.F.n.n.!.M.!.N.!.F.N.F.x.K.S.c.b.c.e.1.7.2.2.<.e.6.e.8.x.x.m.v.",
"k.h.h.k.1.x.h.h.h.k.k.m.n.j.m.m.c.k.v.m.v.n.!.N.N.!.v.n.n.S.v.v.x.8.t.1.7.3.<.e.<.3.x.8.8.8.3.3.k."
};
