/* XPM */
static char *result[] = {
/* columns rows colors chars-per-pixel */
"49 49 225 2 ",
"   c #755C3E",
".  c #71693E",
"X  c #6A7A3C",
"o  c #79713E",
"O  c #7D5943",
"+  c #7B6744",
"@  c #7D7144",
"#  c #7D7C44",
"$  c #89673D",
"%  c #926F3B",
"&  c #977539",
"*  c #835C46",
"=  c #875F48",
"-  c #846044",
";  c #846C46",
":  c #876448",
">  c #8B634A",
",  c #866B48",
"<  c #886243",
"1  c #926C4E",
"2  c #90674D",
"3  c #847B46",
"4  c #89764A",
"5  c #96794D",
"6  c #946A51",
"7  c #997453",
"8  c #967952",
"9  c #997A56",
"0  c #9D7F58",
"q  c #A3755C",
"w  c #A57A5C",
"e  c #A97B5E",
"r  c #AB7D62",
"t  c #A57961",
"y  c #6B9C28",
"u  c #739D2F",
"i  c #6A8C3D",
"p  c #68863B",
"a  c #7E863F",
"s  c #6D923E",
"d  c #6F993E",
"f  c #729D33",
"g  c #72973D",
"h  c #729D3C",
"j  c #7B9C3C",
"k  c #7D9437",
"l  c #74A42C",
"z  c #7AA62E",
"x  c #75A92D",
"c  c #7BAB2D",
"v  c #74A426",
"b  c #7DB02E",
"n  c #75A433",
"m  c #7AA633",
"M  c #76AA32",
"N  c #7CAC33",
"B  c #73A53D",
"V  c #7AA63A",
"C  c #76AB3C",
"Z  c #7CAC3B",
"A  c #7DB334",
"S  c #7DB33B",
"D  c #7AB539",
"F  c #6FA237",
"G  c #6D8F40",
"H  c #798645",
"J  c #6E9541",
"K  c #6E9840",
"L  c #739B44",
"P  c #779847",
"I  c #76A342",
"U  c #7AA445",
"Y  c #7DAC42",
"T  c #76A149",
"R  c #79A54A",
"E  c #7DAB4D",
"W  c #7EB242",
"Q  c #7FB845",
"!  c #7DAB51",
"~  c #7DA752",
"^  c #7EB152",
"/  c #83953B",
"(  c #81B32F",
")  c #82AD34",
"_  c #82AD3C",
"`  c #81A337",
"'  c #82B435",
"]  c #84B43C",
"[  c #8AB63C",
"{  c #85BB3C",
"}  c #89BC3D",
"|  c #84B635",
" . c #86C13D",
".. c #8BC13E",
"X. c #858347",
"o. c #828D46",
"O. c #8A834B",
"+. c #8A8B44",
"@. c #91894C",
"#. c #839B45",
"$. c #8A9B4C",
"%. c #87944A",
"&. c #91964C",
"*. c #8F8451",
"=. c #9B8E57",
"-. c #9D8B59",
";. c #968652",
":. c #8E9854",
">. c #959453",
",. c #999256",
"<. c #969C53",
"1. c #9C955A",
"2. c #9C9B5A",
"3. c #979758",
"4. c #BD964D",
"5. c #AD8355",
"6. c #A3845D",
"7. c #AB835C",
"8. c #A28C5D",
"9. c #B38A57",
"0. c #A4935E",
"q. c #A4965D",
"w. c #83AD43",
"e. c #8AA44D",
"r. c #84AC4B",
"t. c #8AAA4D",
"y. c #88A746",
"u. c #90A94F",
"i. c #84B443",
"p. c #89B544",
"a. c #85BB43",
"s. c #8BBC44",
"d. c #84B449",
"f. c #8BB44C",
"g. c #86BB4B",
"h. c #8BBC4B",
"j. c #91BD4A",
"k. c #90BA48",
"l. c #81AE54",
"z. c #8DAC53",
"x. c #8FA154",
"c. c #94A354",
"v. c #92AC54",
"b. c #97A45A",
"n. c #83B354",
"m. c #8BB552",
"M. c #85B954",
"N. c #8CBC52",
"B. c #8BB55B",
"V. c #87B75A",
"C. c #91B455",
"Z. c #91BD53",
"A. c #94B45A",
"S. c #9F9C63",
"D. c #9D8A62",
"F. c #AE8363",
"G. c #AE8D63",
"H. c #AE846B",
"J. c #A78668",
"K. c #B28365",
"L. c #B5856B",
"P. c #B48A6C",
"I. c #B98A6D",
"U. c #B68867",
"Y. c #A39362",
"T. c #AD946C",
"R. c #AC9C6C",
"E. c #A69665",
"W. c #B49468",
"Q. c #AD8A72",
"!. c #A58472",
"~. c #B28574",
"^. c #B48C74",
"/. c #B98D73",
"(. c #B68E78",
"). c #B88978",
"_. c #BA9177",
"`. c #BC937A",
"'. c #BF997C",
"]. c #B69673",
"[. c #A89972",
"{. c #99A561",
"}. c #8EBA64",
"|. c #8CB865",
" X c #92BC6A",
".X c #9CB460",
"XX c #92B46D",
"oX c #A5A267",
"OX c #AFA074",
"+X c #B8A26B",
"@X c #C29C4A",
"#X c #D1AF5D",
"$X c #C8A353",
"%X c #C18F74",
"&X c #C29B7E",
"*X c #C1967C",
"=X c #C1A161",
"-X c #86C144",
";X c #8BC244",
":X c #8CC846",
">X c #87C249",
",X c #8CC34C",
"<X c #8EC94B",
"1X c #91C345",
"2X c #91C54C",
"3X c #92CA4D",
"4X c #98CB4F",
"5X c #8EC352",
"6X c #8EC953",
"7X c #8FC758",
"8X c #92C553",
"9X c #9AC451",
"0X c #94CA53",
"qX c #99CC56",
"wX c #94C559",
"eX c #95CA5A",
"rX c #9ACC59",
"tX c #99D158",
"yX c #A1CC58",
"uX c #9BC275",
"iX c #95C16D",
"pX c #A3C97B",
"aX c #BCA282",
"sX c #C59D82",
"dX c #C3A087",
/* pixels */
"m N n Z n V V w.w._ d.p.p.m.k.d._ _ _ Z W C W w.$.T.[.#.F C M B W S i.N S N x M D D N n l l l M y ",
"m N l n n V V ` i.i.p.d.h.f.w.d.w.t.f.Y S Y d.w.=.`.dXOXg I C W f.W W D D C A { Z p.M M l M x M x ",
"S N Z Z _ ` _ i.p.i.p.d.f.d.f.m.x.$.y.Y i.S Y $.J.P.P.D.h B S g.d.] W i.D M A D a.p.] ] D | A A M ",
"m ) m m _ ] p.f.i.w.N.d.W Y g.{.aX_.-.&.V w.#.;.r e O.j B C Z 5Xg.W S S D D S { { { s.{ { { | ] A ",
"n N m B Z p.] p.g.d.N.i.Y g.d.{.dX(.U.U.J.8.6.K.6.$.Y C S Q C p.a.g.g.g.{ D -X} -Xs.] s.s.{ } A A ",
"u n M m i.] Z ] p.d.f.i.m.N.Q $.D.t r L.I.U.K.6.v.h.Q C g.p.i.a.a.,Xh.,Xh.-X,X2X2X,X;Xs.a.;X{ ' N ",
") ` m Z S Z Y f.f.N.h.w.h.N.d.h.r.l.$.$.@.7 1 X.p.p.W 6Xg.5X,X,X<X6XrX2X<X5XqXrXqX0X4X3X:X{ 3X} x ",
"f M n B Z Z p.S Z i.h.d.d.N.r.h.h.g.i.i.h.o.* # N.] Q -X0X5XeXeX0X0X8XwX<X3XyX4X9X9XqX<X.. .2X2X{ ",
"f n u f Z m I I I Y W Q d.d.Y N.h.d.d.h.5X#.4 4 P t.f.>X0X<X,X5X0X5X,XrX0X,X6X3XqX2X0X:X;X3X3X2X{ ",
"f m u n Z T  X|.^ Y d.f.h.n.i.N.5X<Xh.g.m.:.9 7 8.T.E.C.,X5X,X,X8X,X,X8X5X<X6X,X0XN.n.d.1X3X;X:X{ ",
"V m l M n V.uX|.n.E E N.wXwXwX7XN.8X5Xv.T.I.t r L._.'.OXB.5X5X5X,Xh.wX8X8X,X2X,Xn.pXiXM.r.s.<Xs.:X",
"V Z Z V I ^ n.^ ! T R 5Xd.m.5X5XN.eXC.oXsX`.P.Q.^._.'.'.b.>X5X5X<X<XwX<Xh.g.h.d.l.uX}.M.^ W a.<X..",
"w.] Z i.h J T K L J r.V.V.! n.N.5X6Xz.R.sX`.^.(.(.`.'.'.oX>X5XN.8X0Xh.r.E E r.h R l.~ R T I ;Xs.:X",
"d.N Z i.Y s i G X G n.uXuXV.n.n.i.,Xt.R.*X(.Q._.Q.!.(.&XE.g.7X8XqX5XM.uX}.^ n.J G J J L p U ,X} } ",
"p.p.S ] Y B h i . + P  X Xn.n.E d.<Xf.oX`.Q.!.~.Q.!.(.'.R.N.6XeXrXeXn.uX}.n.n.L d X p J U 2X2X;X{ ",
"p.p.h.Z l.A.n.L + O # T ! ! ! T r.h.g.b.(.Q.J.~.^.~.~.).R.B.,X5X5Xg.T V.! R T i P   p d.8X3X2Xs.<X",
"p.h.p.U  XuXV.^ H : + p s L s T N.eX5Xb.^.~.Q.~.).).)./.].f.<XeXtXg.K J K J p . , + P ^ g.>X,Xs.3X",
"a.] s.U iX Xn.^ P ; : X J L T m.7X8XrXA.T.^.~.~.).)._.*X].m.6XwXeXg.I d J L X O @ XX Xn.n.a.s.3X3X",
"i.s.p.L T T L T G # w *.t.V.N.7X8XeXeXA.R._.(.^.^._./._.T.z.7X5X5X7X5XW d.r.@ : H  XuXn.n.U ,X-X..",
"i.p.a.Y s i p s L U 3.G.q.B.N.8XtXrXeXA.R._.].^.^././.I.W.z.5Xa.>X7X,X2Xf.>.9 4 G ~ ~ R R s a.a.{ ",
") S S i.w.d L I i.g.r.2.6.Y.b.n.7X8X5XY E.`.^.^./.L.L.I.G.$.g.g.w.t.b.>.0.0 >.e.J G g J i h a. .-X",
"] w.i.g.-Xf.m.i.g.S N.m.:.Y.G.0.3.z.e.&.J.^.^.~.L.~.I.L.F.-.>.,.8.0.7.-.1.b.j.,Xd.L L L U a.h.,X1X",
"Z Z ] h.N.8Xh.5Xd.h.5XM.f.v.E.8.-.E.0.w F.~.^.P.L.L.L.L.K.L.K.F.7.0.q.c.C.,X<X>X,Xa.r.g.,X,X,Xs.{ ",
"x Z a.a.N.h.8X5X5X7XeX5X5Xg.N.c.D.W.U.r t H.H.F.r L.U.K.r K.G.q.c.v.wX2X2X>X2X3X6X<XqX0X2X8X,Xa.a.",
"x S g.s.h.h.g.5X5XN.N.5Xg.a.M.7XwXA.3.9 e q 9.@XK.L.K.q 1 ,.v.N.6X0X2X<X0X<X;X2X0X3X0X3X;X8X;X<X..",
"A S a.h.,X2Xh.5X5X,X5X,Xg.>Xg.5X5X5Xz.=.r w @X@Xr L.L.r O.N.eX8X0X0X0X<X<X<X0X-X:XtXtX4X0X<X3X<X3X",
"Z Z ] ,X,X,X5XeX5X5X-Xg.g.>X>X>Xh.eXv.Y.L.e @X4.r I.L.G.:.8XeX<X0X3X<X0XeXeX2X1X;X;X3X4X<X<X<X-X-X",
"] A a.-Xh.h.,XeX5Xh.>Xg.g.5X8XN.5X7X>.G.U.w 5.5.r I.L.G.m.<XeX<X3X:X6X3X2X8X2X3X-X8X3X-X3X3Xa.-X..",
"S ] a.;Xs.,X0X,Xg.,XN.g.7Xd.wXZ.wXB.q.W.7.q q e L.L.U.1.a.0X3X:XqX0X<X-X:X2X2XeX3X0X3X:X .:X . .{ ",
"] j.j.,Xp.0X;X8X,X<X,X,X>XwXN.5XwX:.W.#X5.q e e U.L.G.c.0X:X3X-X2XrX0X<X<XeXj.,Xs.0X2X .{ :X-X .-X",
"a.h.2Xs.2X2X9X3X3X2X0X5XwXN.wXh.Z.=.=X#Xe q w 9.9.I.E.Z.5X-X-X-X<X2X<X<X,X>Xh.,Xs.,X-X-X:X<X;X .{ ",
"{ p.s.4X3X0X1Xs.0X2XqX2Xh.Z.2Xh.z.E.W.9.w q w 7.U.P.<.0X-X<X<X>X>X:X;X<X6X<X<X2X;X-X:X .:X{ ;X;X .",
"c s.;Xs.;Xs.1X1X9X2X8X8X5X5Xs.g.$.P.~.r q q q r I.0.v.4X6X>X>X<X<X:X-X<X3X3X<X;X-X;X;X:X:Xa.;X .} ",
"c s.s.} s.s...;X2X3X8X5Xh.5X>Xp.>.K.H.e w w e r K.q.>X<X,X-X<X>X>X-Xa.:X4X9X,X-X:X:X1X3X2X<X{ { ;X",
"N ] ' } 1Xs.3Xh.a.,X8X2X<X2Xa.y.5.e e e 5.w e K.K.<.,X,X>X,X-X5X<X0X-X<Xj.yX3X;Xs.<X;X:X1X1X;X .} ",
"N f.p.] s.} { { a.,Xh.a.:Xg.a.#.w e e e @X4.e K.6.t.>X<Xg.<X<X2X,X<XtXtX2XrXrX3X:X:X3X3X0XeX2X;Xp.",
"N ] ] { { } | { { ] ;X-Xg.,Xj @ 2 q q e @X9.q q 1 o.h.eX,X,Xg.-X>X-X0XqXqX2X2X:X1X:X:X<X:Xs.1Xk.k.",
"m N S A } ;X| ' | { a.g.{ a.o O * < 6 7 5 1 = > 6 4 %.<X,X>X-X .h.,X3XqX0X3Xp... .-X;X} ;Xs...1X[ ",
"N N ' N ] [ c | { -Xs.a.s.j ; * $ - * * * * * = 1 > X.p.-Xh.-X;X<X<X2X,X2Xk...;X{ {  .{ s.j.} k.s.",
"' ] ) ' ] ] ] { ' 2Xh.s.a.a : * % % < * * * * = > > 3 w.,X0X2Xh.<X<X8Xs.4Xk.;X} :X....} ..h.p.[ s.",
"] ] ) [ [ [ p.] ' s.h.p.y.5 : O & & < * * * > > > > O.w.2X9X2X,X2X2Xs.s.2Xj.1X..{ ..s.s.{ k.2Xp.| ",
") ] ) s.h.[ k.] ' ] p.i.;.r 6 O % & $ * * = > > 6 q ,.h.wX9XZ.2X5X<X;X2Xs.s.p.} ..;X2X] } } s.} ( ",
") ) ` ) ] p.c ] { A N @.F.F.q * O 1 > > = = 2 2 r U.8.y.s.8Xh.s.3X<X2X[ s.h.h.k.} } a.] } 1Xs.} ' ",
"z N N ) z m ) ' ' p.V 8 r w @.w.#.# , , , 4 O.&.,.K.P.9 ; 3 y.p.s.a.[ ,Xs.k.k.g.p.} ' [ [ } [ } k.",
"z z z v z z ) c | p.w.3 7 +.` s.p.p.y.e.y.f.k.2Xf.;.e w > - @ w.,X1Xh.s.a.p.h.] ] { } { ' s.[ ' [ ",
"v ` l z N N l c N / ,.5 > 4 ` h.j.k.g.j.k.k.2X:X2Xp.j 3 * : ; H s.h.} ' a.p.] x N | | s.{ | | | | ",
"v v z l z z N n >.T.I.K.e G.&.y.k.s.k.;X2X} 1X1X..k.s.y.; > : ; g.s.p.{ N ` N x m A x ' ] | ' ( ( ",
"z z c c c c ) k W.sX%XU.q 5 #.[ 1Xs.s.p.} k.....1Xk.p.<.F.e w 7 m { ] A x N v v x A c ) N ] | | [ ",
") ) ) ) z ( ) ` / & +./ j c | | ] ) [ | [ } 1X;X..k.y.<.7.9 ;./ ] Z A b c b x A x x A ) A N b b ) "
};
